<?xml version="1.0" encoding="UTF-8"?>
<svg width="964px" height="642px" viewBox="0 0 964 642" version="1.1" xmlns="http://www.w3.org/2000/svg" xmlns:xlink="http://www.w3.org/1999/xlink">
    <!-- Generator: Sketch 51.3 (57544) - http://www.bohemiancoding.com/sketch -->
    <title>static/images/portfolio/snip</title>
    <desc>Created with Sketch.</desc>
    <defs></defs>
    <g id="static/images/portfolio/snip" stroke="none" stroke-width="1" fill="none" fill-rule="evenodd">
        <rect fill="#F0326B" x="0" y="0" width="964" height="642"></rect>
        <g id="Download_on_the_App_Store_Badge_US-UK_135x40" transform="translate(614.000000, 490.000000)">
            <g id="US_UK_Download_on_the">
                <g id="Group">
                    <path d="M289.326667,89.2857143 L10.5088889,89.2857143 C4.71555556,89.2857143 0,84.5357143 0,78.7209821 L0,10.5491071 C0,4.73214286 4.71555556,0 10.5088889,0 L289.326667,0 C295.117778,0 300,4.73214286 300,10.5491071 L300,78.7209821 C300,84.5357143 295.117778,89.2857143 289.326667,89.2857143 L289.326667,89.2857143 L289.326667,89.2857143 Z" id="Shape" fill="#FFFFFF"></path>
                    <path d="M297.848889,78.7232143 C297.848889,83.4464286 294.04,87.2723214 289.328889,87.2723214 L10.5088889,87.2723214 C5.8,87.2723214 1.97777778,83.4464286 1.97777778,78.7232143 L1.97777778,10.546875 C1.97777778,5.82589286 5.8,1.98660714 10.5088889,1.98660714 L289.326667,1.98660714 C294.04,1.98660714 297.846667,5.82589286 297.846667,10.546875 L297.848889,78.7232143 L297.848889,78.7232143 L297.848889,78.7232143 Z" id="Shape" fill="#F0326B"></path>
                    <g transform="translate(26.666667, 13.392857)" fill="#FFFFFF" id="Shape">
                        <path d="M40.2844444,30.7678571 C40.22,23.5736607 46.1488889,20.0736607 46.42,19.9107143 C43.0622222,14.9933036 37.8577778,14.3214286 36.0288889,14.2678571 C31.6577778,13.8058036 27.4177778,16.8950893 25.1911111,16.8950893 C22.92,16.8950893 19.4911111,14.3125 15.7955556,14.3883929 C11.04,14.4620536 6.59111111,17.2276786 4.15111111,21.5223214 C-0.884444444,30.2790179 2.87111111,43.1473214 7.69555556,50.2254464 C10.1088889,53.6919643 12.9288889,57.5625 16.62,57.4263393 C20.2311111,57.2767857 21.58,55.1138393 25.9377778,55.1138393 C30.2555556,55.1138393 31.5222222,57.4263393 35.2866667,57.3392857 C39.1622222,57.2767857 41.6022222,53.8571429 43.9311111,50.359375 C46.72,46.3861607 47.84,42.4732143 47.8844444,42.2723214 C47.7933333,42.2410714 40.3577778,39.390625 40.2844444,30.7678571 L40.2844444,30.7678571 Z"></path>
                        <path d="M33.1733333,9.61160714 C35.1155556,7.171875 36.4444444,3.85267857 36.0755556,0.484375 C33.2644444,0.609375 29.7488889,2.4375 27.7244444,4.82366071 C25.9333333,6.92633929 24.3333333,10.3727679 24.7466667,13.6138393 C27.9044444,13.8504464 31.1466667,12.0133929 33.1733333,9.61160714 L33.1733333,9.61160714 Z"></path>
                    </g>
                    <g transform="translate(93.333333, 40.178571)" fill="#FFFFFF" id="Shape">
                        <path d="M25.8777778,30.1428571 L20.8311111,30.1428571 L18.0666667,21.4174107 L8.45777778,21.4174107 L5.82444444,30.1428571 L0.911111111,30.1428571 L10.4311111,0.4375 L16.3111111,0.4375 L25.8777778,30.1428571 L25.8777778,30.1428571 L25.8777778,30.1428571 Z M17.2333333,17.7566964 L14.7333333,10 C14.4688889,9.20758929 13.9733333,7.34151786 13.2422222,4.40401786 L13.1533333,4.40401786 C12.8622222,5.66741071 12.3933333,7.53348214 11.7488889,10 L9.29333333,17.7566964 L17.2333333,17.7566964 L17.2333333,17.7566964 L17.2333333,17.7566964 Z"></path>
                        <path d="M50.36,19.1696429 C50.36,22.8125 49.38,25.6919643 47.42,27.8058036 C45.6644444,29.6875 43.4844444,30.6272321 40.8822222,30.6272321 C38.0733333,30.6272321 36.0555556,29.6138393 34.8266667,27.5870536 L34.7377778,27.5870536 L34.7377778,38.8705357 L30,38.8705357 L30,15.7745536 C30,13.484375 29.94,11.1339286 29.8244444,8.72321429 L33.9911111,8.72321429 L34.2555556,12.1183036 L34.3444444,12.1183036 C35.9244444,9.56026786 38.3222222,8.28348214 41.54,8.28348214 C44.0555556,8.28348214 46.1555556,9.28125 47.8355556,11.2790179 C49.52,13.2790179 50.36,15.9084821 50.36,19.1696429 L50.36,19.1696429 L50.36,19.1696429 Z M45.5333333,19.34375 C45.5333333,17.2589286 45.0666667,15.5401786 44.1288889,14.1875 C43.1044444,12.7767857 41.7288889,12.0714286 40.0044444,12.0714286 C38.8355556,12.0714286 37.7733333,12.4642857 36.8244444,13.2388393 C35.8733333,14.0200893 35.2511111,15.0401786 34.96,16.3035714 C34.8133333,16.8928571 34.74,17.375 34.74,17.7544643 L34.74,21.3258929 C34.74,22.8839286 35.2155556,24.1986607 36.1666667,25.2723214 C37.1177778,26.3459821 38.3533333,26.8816964 39.8733333,26.8816964 C41.6577778,26.8816964 43.0466667,26.1897321 44.04,24.8102679 C45.0355556,23.4285714 45.5333333,21.6071429 45.5333333,19.34375 L45.5333333,19.34375 L45.5333333,19.34375 Z"></path>
                        <path d="M74.8866667,19.1696429 C74.8866667,22.8125 73.9066667,25.6919643 71.9444444,27.8058036 C70.1911111,29.6875 68.0111111,30.6272321 65.4088889,30.6272321 C62.6,30.6272321 60.5822222,29.6138393 59.3555556,27.5870536 L59.2666667,27.5870536 L59.2666667,38.8705357 L54.5288889,38.8705357 L54.5288889,15.7745536 C54.5288889,13.484375 54.4688889,11.1339286 54.3533333,8.72321429 L58.52,8.72321429 L58.7844444,12.1183036 L58.8733333,12.1183036 C60.4511111,9.56026786 62.8488889,8.28348214 66.0688889,8.28348214 C68.5822222,8.28348214 70.6822222,9.28125 72.3666667,11.2790179 C74.0444444,13.2790179 74.8866667,15.9084821 74.8866667,19.1696429 L74.8866667,19.1696429 L74.8866667,19.1696429 Z M70.06,19.34375 C70.06,17.2589286 69.5911111,15.5401786 68.6533333,14.1875 C67.6288889,12.7767857 66.2577778,12.0714286 64.5311111,12.0714286 C63.36,12.0714286 62.3,12.4642857 61.3488889,13.2388393 C60.3977778,14.0200893 59.7777778,15.0401786 59.4866667,16.3035714 C59.3422222,16.8928571 59.2666667,17.375 59.2666667,17.7544643 L59.2666667,21.3258929 C59.2666667,22.8839286 59.7422222,24.1986607 60.6888889,25.2723214 C61.64,26.34375 62.8755556,26.8816964 64.4,26.8816964 C66.1844444,26.8816964 67.5733333,26.1897321 68.5666667,24.8102679 C69.5622222,23.4285714 70.06,21.6071429 70.06,19.34375 L70.06,19.34375 L70.06,19.34375 Z"></path>
                        <path d="M102.308889,21.8125 C102.308889,24.3392857 101.435556,26.3950893 99.6822222,27.9821429 C97.7555556,29.7165179 95.0733333,30.5825893 91.6266667,30.5825893 C88.4444444,30.5825893 85.8933333,29.9665179 83.9622222,28.7321429 L85.06,24.765625 C87.14,26.0290179 89.4222222,26.6629464 91.9088889,26.6629464 C93.6933333,26.6629464 95.0822222,26.2566964 96.08,25.4486607 C97.0733333,24.640625 97.5688889,23.5558036 97.5688889,22.203125 C97.5688889,20.9977679 97.16,19.9821429 96.34,19.1584821 C95.5244444,18.3348214 94.1622222,17.5691964 92.26,16.8616071 C87.0822222,14.921875 84.4955556,12.0803571 84.4955556,8.34375 C84.4955556,5.90178571 85.4022222,3.89955357 87.2177778,2.34151786 C89.0266667,0.78125 91.44,0.00223214286 94.4577778,0.00223214286 C97.1488889,0.00223214286 99.3844444,0.473214286 101.168889,1.41294643 L99.9844444,5.29241071 C98.3177778,4.38169643 96.4333333,3.92633929 94.3244444,3.92633929 C92.6577778,3.92633929 91.3555556,4.33928571 90.4222222,5.16071429 C89.6333333,5.89508929 89.2377778,6.79017857 89.2377778,7.85044643 C89.2377778,9.02455357 89.6888889,9.99553571 90.5955556,10.7589286 C91.3844444,11.4642857 92.8177778,12.2276786 94.8977778,13.0513393 C97.4422222,14.0803571 99.3111111,15.2834821 100.513333,16.6629464 C101.711111,18.0379464 102.308889,19.7589286 102.308889,21.8125 L102.308889,21.8125 Z"></path>
                        <path d="M117.973333,12.2946429 L112.751111,12.2946429 L112.751111,22.6941964 C112.751111,25.3392857 113.671111,26.6607143 115.515556,26.6607143 C116.362222,26.6607143 117.064444,26.5870536 117.62,26.4397321 L117.751111,30.0535714 C116.817778,30.4040179 115.588889,30.5803571 114.066667,30.5803571 C112.195556,30.5803571 110.733333,30.0066964 109.677778,28.8616071 C108.626667,27.7142857 108.097778,25.7901786 108.097778,23.0870536 L108.097778,12.2901786 L104.986667,12.2901786 L104.986667,8.71875 L108.097778,8.71875 L108.097778,4.796875 L112.751111,3.38616071 L112.751111,8.71875 L117.973333,8.71875 L117.973333,12.2946429 L117.973333,12.2946429 Z"></path>
                        <path d="M141.535556,19.2566964 C141.535556,22.5491071 140.597778,25.2522321 138.726667,27.3660714 C136.764444,29.5424107 134.16,30.6272321 130.913333,30.6272321 C127.784444,30.6272321 125.293333,29.5848214 123.435556,27.5 C121.577778,25.4151786 120.648889,22.7834821 120.648889,19.6116071 C120.648889,16.2924107 121.604444,13.5736607 123.522222,11.4598214 C125.435556,9.34375 128.017778,8.28571429 131.264444,8.28571429 C134.393333,8.28571429 136.911111,9.328125 138.811111,11.4151786 C140.628889,13.4397321 141.535556,16.0535714 141.535556,19.2566964 L141.535556,19.2566964 L141.535556,19.2566964 Z M136.62,19.4107143 C136.62,17.4352679 136.2,15.7410714 135.348889,14.328125 C134.355556,12.6183036 132.935556,11.765625 131.095556,11.765625 C129.191111,11.765625 127.744444,12.6205357 126.751111,14.328125 C125.9,15.7433036 125.48,17.4642857 125.48,19.5 C125.48,21.4754464 125.9,23.1696429 126.751111,24.5803571 C127.775556,26.2901786 129.206667,27.1428571 131.053333,27.1428571 C132.862222,27.1428571 134.282222,26.2723214 135.306667,24.5357143 C136.18,23.0959821 136.62,21.3839286 136.62,19.4107143 L136.62,19.4107143 L136.62,19.4107143 Z"></path>
                        <path d="M156.935556,12.9084821 C156.466667,12.8214286 155.966667,12.7767857 155.442222,12.7767857 C153.775556,12.7767857 152.486667,13.4084821 151.58,14.6741071 C150.791111,15.7901786 150.395556,17.2008929 150.395556,18.9040179 L150.395556,30.1428571 L145.66,30.1428571 L145.704444,15.46875 C145.704444,13 145.644444,10.7522321 145.526667,8.72544643 L149.653333,8.72544643 L149.826667,12.8236607 L149.957778,12.8236607 C150.457778,11.4151786 151.246667,10.28125 152.326667,9.43080357 C153.382222,8.66517857 154.522222,8.28348214 155.751111,8.28348214 C156.188889,8.28348214 156.584444,8.31473214 156.935556,8.37053571 L156.935556,12.9084821 L156.935556,12.9084821 Z"></path>
                        <path d="M178.124444,18.4196429 C178.124444,19.2723214 178.068889,19.9910714 177.951111,20.578125 L163.737778,20.578125 C163.793333,22.6941964 164.48,24.3125 165.8,25.4285714 C166.997778,26.4263393 168.546667,26.9263393 170.448889,26.9263393 C172.553333,26.9263393 174.473333,26.5892857 176.2,25.9129464 L176.942222,29.2165179 C174.924444,30.1004464 172.542222,30.5401786 169.793333,30.5401786 C166.486667,30.5401786 163.891111,29.5625 162.002222,27.609375 C160.117778,25.65625 159.173333,23.0334821 159.173333,19.7433036 C159.173333,16.5133929 160.051111,13.8236607 161.808889,11.6785714 C163.648889,9.38839286 166.135556,8.24330357 169.264444,8.24330357 C172.337778,8.24330357 174.664444,9.38839286 176.244444,11.6785714 C177.495556,13.4977679 178.124444,15.7477679 178.124444,18.4196429 L178.124444,18.4196429 L178.124444,18.4196429 Z M173.606667,17.1852679 C173.637778,15.7745536 173.328889,14.5558036 172.686667,13.5267857 C171.866667,12.203125 170.606667,11.5424107 168.911111,11.5424107 C167.362222,11.5424107 166.102222,12.1875 165.14,13.4821429 C164.351111,14.5111607 163.882222,15.7455357 163.737778,17.1830357 L173.606667,17.1830357 L173.606667,17.1852679 L173.606667,17.1852679 Z"></path>
                    </g>
                    <g transform="translate(95.555556, 13.392857)" fill="#FFFFFF" id="Shape">
                        <path d="M13.4444444,8.94866071 C13.4444444,11.5758929 12.66,13.5535714 11.0933333,14.8816964 C9.64222222,16.1071429 7.58,16.7209821 4.90888889,16.7209821 C3.58444444,16.7209821 2.45111111,16.6629464 1.50222222,16.546875 L1.50222222,2.19196429 C2.74,1.99107143 4.07333333,1.88839286 5.51333333,1.88839286 C8.05777778,1.88839286 9.97555556,2.44419643 11.2688889,3.55580357 C12.7177778,4.8125 13.4444444,6.609375 13.4444444,8.94866071 L13.4444444,8.94866071 L13.4444444,8.94866071 Z M10.9888889,9.01339286 C10.9888889,7.31026786 10.54,6.00446429 9.64222222,5.09375 C8.74444444,4.18526786 7.43333333,3.72991071 5.70666667,3.72991071 C4.97333333,3.72991071 4.34888889,3.77901786 3.83111111,3.88169643 L3.83111111,14.7946429 C4.11777778,14.8392857 4.64222222,14.859375 5.40444444,14.859375 C7.18666667,14.859375 8.56222222,14.3616071 9.53111111,13.3660714 C10.5,12.3705357 10.9888889,10.9196429 10.9888889,9.01339286 L10.9888889,9.01339286 L10.9888889,9.01339286 Z"></path>
                        <path d="M26.4644444,11.2433036 C26.4644444,12.8616071 26.0044444,14.1875 25.0844444,15.2276786 C24.12,16.296875 22.8422222,16.8303571 21.2466667,16.8303571 C19.7088889,16.8303571 18.4844444,16.3191964 17.5711111,15.2924107 C16.66,14.2678571 16.2044444,12.9754464 16.2044444,11.4174107 C16.2044444,9.78794643 16.6733333,8.45089286 17.6155556,7.41294643 C18.5577778,6.375 19.8244444,5.85491071 21.42,5.85491071 C22.9577778,5.85491071 24.1933333,6.36607143 25.1288889,7.390625 C26.0177778,8.38616071 26.4644444,9.671875 26.4644444,11.2433036 L26.4644444,11.2433036 L26.4644444,11.2433036 Z M24.0488889,11.3191964 C24.0488889,10.3482143 23.84,9.515625 23.4244444,8.82142857 C22.9355556,7.98214286 22.24,7.5625 21.3355556,7.5625 C20.4,7.5625 19.6888889,7.98214286 19.2,8.82142857 C18.7822222,9.515625 18.5755556,10.3616071 18.5755556,11.3616071 C18.5755556,12.3325893 18.7844444,13.1651786 19.2,13.859375 C19.7044444,14.6986607 20.4066667,15.1183036 21.3133333,15.1183036 C22.2022222,15.1183036 22.9,14.6919643 23.4022222,13.8370536 C23.8333333,13.1294643 24.0488889,12.2901786 24.0488889,11.3191964 L24.0488889,11.3191964 L24.0488889,11.3191964 Z"></path>
                        <path d="M43.9222222,6.06919643 L40.6444444,16.5915179 L38.5111111,16.5915179 L37.1533333,12.0223214 C36.8088889,10.8816964 36.5288889,9.74776786 36.3111111,8.62276786 L36.2688889,8.62276786 C36.0666667,9.77901786 35.7866667,10.9107143 35.4266667,12.0223214 L33.9844444,16.5915179 L31.8266667,16.5915179 L28.7444444,6.06919643 L31.1377778,6.06919643 L32.3222222,11.0714286 C32.6088889,12.2544643 32.8444444,13.3816964 33.0333333,14.4486607 L33.0755556,14.4486607 C33.2488889,13.5691964 33.5355556,12.4486607 33.94,11.09375 L35.4266667,6.07142857 L37.3244444,6.07142857 L38.7488889,10.9866071 C39.0933333,12.1852679 39.3733333,13.3392857 39.5888889,14.4508929 L39.6533333,14.4508929 C39.8111111,13.3683036 40.0488889,12.2142857 40.3644444,10.9866071 L41.6355556,6.07142857 L43.9222222,6.07142857 L43.9222222,6.06919643 Z"></path>
                        <path d="M55.9955556,16.5915179 L53.6666667,16.5915179 L53.6666667,10.5647321 C53.6666667,8.70758929 52.9644444,7.77901786 51.5555556,7.77901786 C50.8644444,7.77901786 50.3066667,8.03348214 49.8733333,8.54464286 C49.4444444,9.05580357 49.2266667,9.65848214 49.2266667,10.3482143 L49.2266667,16.5892857 L46.8977778,16.5892857 L46.8977778,9.07589286 C46.8977778,8.15178571 46.8688889,7.14955357 46.8133333,6.06473214 L48.86,6.06473214 L48.9688889,7.70982143 L49.0333333,7.70982143 C49.3044444,7.19866071 49.7088889,6.77678571 50.24,6.43973214 C50.8711111,6.046875 51.5777778,5.84821429 52.3511111,5.84821429 C53.3288889,5.84821429 54.1422222,6.16517857 54.7888889,6.80133929 C55.5933333,7.58035714 55.9955556,8.74330357 55.9955556,10.2879464 L55.9955556,16.5915179 L55.9955556,16.5915179 Z"></path>
                        <polygon points="62.4177778 16.5915179 60.0911111 16.5915179 60.0911111 1.24107143 62.4177778 1.24107143"></polygon>
                        <path d="M76.1288889,11.2433036 C76.1288889,12.8616071 75.6688889,14.1875 74.7488889,15.2276786 C73.7844444,16.296875 72.5044444,16.8303571 70.9111111,16.8303571 C69.3711111,16.8303571 68.1466667,16.3191964 67.2355556,15.2924107 C66.3244444,14.2678571 65.8688889,12.9754464 65.8688889,11.4174107 C65.8688889,9.78794643 66.3377778,8.45089286 67.28,7.41294643 C68.2222222,6.375 69.4888889,5.85491071 71.0822222,5.85491071 C72.6222222,5.85491071 73.8555556,6.36607143 74.7933333,7.390625 C75.6822222,8.38616071 76.1288889,9.671875 76.1288889,11.2433036 L76.1288889,11.2433036 L76.1288889,11.2433036 Z M73.7111111,11.3191964 C73.7111111,10.3482143 73.5022222,9.515625 73.0866667,8.82142857 C72.6,7.98214286 71.9022222,7.5625 71,7.5625 C70.0622222,7.5625 69.3511111,7.98214286 68.8644444,8.82142857 C68.4466667,9.515625 68.24,10.3616071 68.24,11.3616071 C68.24,12.3325893 68.4488889,13.1651786 68.8644444,13.859375 C69.3688889,14.6986607 70.0711111,15.1183036 70.9777778,15.1183036 C71.8666667,15.1183036 72.5622222,14.6919643 73.0644444,13.8370536 C73.4977778,13.1294643 73.7111111,12.2901786 73.7111111,11.3191964 L73.7111111,11.3191964 L73.7111111,11.3191964 Z"></path>
                        <path d="M87.4,16.5915179 L85.3088889,16.5915179 L85.1355556,15.3794643 L85.0711111,15.3794643 C84.3555556,16.3459821 83.3355556,16.8303571 82.0111111,16.8303571 C81.0222222,16.8303571 80.2222222,16.5111607 79.62,15.8772321 C79.0733333,15.3013393 78.8,14.5848214 78.8,13.734375 C78.8,12.4486607 79.3333333,11.46875 80.4066667,10.7901786 C81.4777778,10.1116071 82.9844444,9.77901786 84.9244444,9.79464286 L84.9244444,9.59821429 C84.9244444,8.21205357 84.2,7.52008929 82.7488889,7.52008929 C81.7155556,7.52008929 80.8044444,7.78125 80.0177778,8.29910714 L79.5444444,6.76339286 C80.5177778,6.15848214 81.72,5.85491071 83.1377778,5.85491071 C85.8755556,5.85491071 87.2488889,7.30580357 87.2488889,10.2075893 L87.2488889,14.0825893 C87.2488889,15.1339286 87.3,15.9709821 87.4,16.5915179 L87.4,16.5915179 L87.4,16.5915179 Z M84.9822222,12.9754464 L84.9822222,11.3526786 C82.4133333,11.3080357 81.1288889,12.015625 81.1288889,13.4732143 C81.1288889,14.0223214 81.2755556,14.4330357 81.5755556,14.7075893 C81.8755556,14.9821429 82.2577778,15.1183036 82.7133333,15.1183036 C83.2244444,15.1183036 83.7022222,14.9553571 84.1377778,14.6316964 C84.5755556,14.3058036 84.8444444,13.8928571 84.9444444,13.3861607 C84.9688889,13.2723214 84.9822222,13.1339286 84.9822222,12.9754464 L84.9822222,12.9754464 L84.9822222,12.9754464 Z"></path>
                        <path d="M100.633333,16.5915179 L98.5666667,16.5915179 L98.4577778,14.9017857 L98.3933333,14.9017857 C97.7333333,16.1875 96.6088889,16.8303571 95.0288889,16.8303571 C93.7666667,16.8303571 92.7155556,16.3325893 91.8822222,15.3370536 C91.0488889,14.3415179 90.6333333,13.0491071 90.6333333,11.4620536 C90.6333333,9.75892857 91.0844444,8.37946429 91.9911111,7.32589286 C92.8688889,6.34375 93.9444444,5.85267857 95.2244444,5.85267857 C96.6311111,5.85267857 97.6155556,6.328125 98.1755556,7.28125 L98.22,7.28125 L98.22,1.24107143 L100.551111,1.24107143 L100.551111,13.7566964 C100.551111,14.78125 100.577778,15.7254464 100.633333,16.5915179 L100.633333,16.5915179 L100.633333,16.5915179 Z M98.22,12.1540179 L98.22,10.3995536 C98.22,10.0959821 98.1977778,9.85044643 98.1555556,9.66294643 C98.0244444,9.10044643 97.7422222,8.62723214 97.3133333,8.24553571 C96.88,7.86383929 96.3577778,7.671875 95.7555556,7.671875 C94.8866667,7.671875 94.2066667,8.01785714 93.7066667,8.71205357 C93.2111111,9.40625 92.96,10.2924107 92.96,11.375 C92.96,12.4151786 93.1977778,13.2589286 93.6755556,13.9084821 C94.18,14.6004464 94.86,14.9464286 95.7111111,14.9464286 C96.4755556,14.9464286 97.0866667,14.6584821 97.5511111,14.0803571 C98,13.546875 98.22,12.9040179 98.22,12.1540179 L98.22,12.1540179 L98.22,12.1540179 Z"></path>
                        <path d="M120.551111,11.2433036 C120.551111,12.8616071 120.091111,14.1875 119.171111,15.2276786 C118.206667,16.296875 116.931111,16.8303571 115.333333,16.8303571 C113.797778,16.8303571 112.573333,16.3191964 111.657778,15.2924107 C110.746667,14.2678571 110.291111,12.9754464 110.291111,11.4174107 C110.291111,9.78794643 110.76,8.45089286 111.702222,7.41294643 C112.644444,6.375 113.911111,5.85491071 115.508889,5.85491071 C117.044444,5.85491071 118.282222,6.36607143 119.215556,7.390625 C120.104444,8.38616071 120.551111,9.671875 120.551111,11.2433036 L120.551111,11.2433036 L120.551111,11.2433036 Z M118.137778,11.3191964 C118.137778,10.3482143 117.928889,9.515625 117.513333,8.82142857 C117.022222,7.98214286 116.328889,7.5625 115.422222,7.5625 C114.488889,7.5625 113.777778,7.98214286 113.286667,8.82142857 C112.868889,9.515625 112.662222,10.3616071 112.662222,11.3616071 C112.662222,12.3325893 112.871111,13.1651786 113.286667,13.859375 C113.791111,14.6986607 114.493333,15.1183036 115.4,15.1183036 C116.288889,15.1183036 116.988889,14.6919643 117.491111,13.8370536 C117.92,13.1294643 118.137778,12.2901786 118.137778,11.3191964 L118.137778,11.3191964 L118.137778,11.3191964 Z"></path>
                        <path d="M133.073333,16.5915179 L130.746667,16.5915179 L130.746667,10.5647321 C130.746667,8.70758929 130.044444,7.77901786 128.633333,7.77901786 C127.942222,7.77901786 127.384444,8.03348214 126.953333,8.54464286 C126.522222,9.05580357 126.306667,9.65848214 126.306667,10.3482143 L126.306667,16.5892857 L123.975556,16.5892857 L123.975556,9.07589286 C123.975556,8.15178571 123.948889,7.14955357 123.893333,6.06473214 L125.937778,6.06473214 L126.046667,7.70982143 L126.111111,7.70982143 C126.384444,7.19866071 126.788889,6.77678571 127.317778,6.43973214 C127.951111,6.046875 128.655556,5.84821429 129.431111,5.84821429 C130.406667,5.84821429 131.22,6.16517857 131.866667,6.80133929 C132.673333,7.58035714 133.073333,8.74330357 133.073333,10.2879464 L133.073333,16.5915179 L133.073333,16.5915179 Z"></path>
                        <path d="M148.746667,7.82142857 L146.182222,7.82142857 L146.182222,12.9330357 C146.182222,14.2321429 146.637778,14.8816964 147.54,14.8816964 C147.957778,14.8816964 148.304444,14.8459821 148.577778,14.7723214 L148.637778,16.546875 C148.177778,16.7209821 147.573333,16.8080357 146.828889,16.8080357 C145.908889,16.8080357 145.193333,16.5267857 144.675556,15.9642857 C144.155556,15.4017857 143.897778,14.4553571 143.897778,13.1272321 L143.897778,7.82142857 L142.366667,7.82142857 L142.366667,6.06919643 L143.897778,6.06919643 L143.897778,4.140625 L146.18,3.44866071 L146.18,6.06696429 L148.744444,6.06696429 L148.744444,7.82142857 L148.746667,7.82142857 Z"></path>
                        <path d="M161.075556,16.5915179 L158.744444,16.5915179 L158.744444,10.609375 C158.744444,8.72321429 158.042222,7.77901786 156.635556,7.77901786 C155.555556,7.77901786 154.817778,8.32589286 154.413333,9.41964286 C154.344444,9.64955357 154.304444,9.93080357 154.304444,10.2611607 L154.304444,16.5892857 L151.977778,16.5892857 L151.977778,1.24107143 L154.304444,1.24107143 L154.304444,7.58258929 L154.348889,7.58258929 C155.082222,6.42857143 156.133333,5.85267857 157.495556,5.85267857 C158.46,5.85267857 159.257778,6.16964286 159.891111,6.80580357 C160.68,7.59821429 161.075556,8.77678571 161.075556,10.3348214 L161.075556,16.5915179 L161.075556,16.5915179 Z"></path>
                        <path d="M173.793333,10.8325893 C173.793333,11.2522321 173.762222,11.6049107 173.706667,11.8928571 L166.722222,11.8928571 C166.753333,12.9330357 167.086667,13.7254464 167.733333,14.2745536 C168.324444,14.765625 169.086667,15.0111607 170.02,15.0111607 C171.053333,15.0111607 171.995556,14.8459821 172.844444,14.5133929 L173.208889,16.1383929 C172.215556,16.5714286 171.046667,16.7879464 169.693333,16.7879464 C168.071111,16.7879464 166.793333,16.3080357 165.868889,15.3482143 C164.94,14.3883929 164.48,13.1004464 164.48,11.484375 C164.48,9.89732143 164.908889,8.57589286 165.773333,7.52232143 C166.675556,6.39732143 167.895556,5.83482143 169.435556,5.83482143 C170.942222,5.83482143 172.086667,6.39732143 172.86,7.52232143 C173.484444,8.41517857 173.793333,9.52008929 173.793333,10.8325893 L173.793333,10.8325893 L173.793333,10.8325893 Z M171.571111,10.2276786 C171.588889,9.53348214 171.435556,8.93526786 171.12,8.43080357 C170.715556,7.78125 170.1,7.45535714 169.266667,7.45535714 C168.506667,7.45535714 167.886667,7.77232143 167.413333,8.40848214 C167.026667,8.91517857 166.797778,9.52008929 166.722222,10.2276786 L171.571111,10.2276786 L171.571111,10.2276786 L171.571111,10.2276786 Z"></path>
                    </g>
                </g>
            </g>
        </g>
        <g id="Logo" transform="translate(-38.000000, 125.000000)">
            <g id="Logo-Group">
                <g id="Logo">
                    <text id="SNIP" font-family="Exo2-Bold, Exo 2" font-size="240.946479" font-weight="bold" fill="#F5E8CC">
                        <tspan x="253.446042" y="243">S</tspan>
                        <tspan x="393.676893" y="243" fill-opacity="0">N</tspan>
                        <tspan x="567.640251" y="243">IP</tspan>
                    </text>
                    <g id="N" transform="translate(410.757042, 11.038732)">
                        <path d="M34.8106634,225.575686 C34.8116672,225.610364 34.8121726,225.645168 34.8121726,225.680092 C34.8121726,227.615895 33.2592787,229.185174 31.3436868,229.185174 C29.428095,229.185174 27.8752011,227.615895 27.8752011,225.680092 C27.8752011,225.659853 27.8753708,225.639654 27.8757089,225.619496 L27.8752011,207.232285 C27.8751843,205.296485 26.3151667,203.72721 24.3907878,203.72721 C22.4664096,203.72721 20.9063924,205.296484 20.9063881,207.232283 L20.9063881,237.410332 C20.906396,237.413421 20.9064,237.41651 20.9064,237.419601 C20.9064,239.355404 19.3463811,240.924683 17.4220003,240.924683 C15.4976194,240.924683 13.9376005,239.355404 13.9376005,237.419601 L13.9376005,218.971795 C13.9375838,217.035994 12.3775661,215.466719 10.4531873,215.466719 C8.52880724,215.466719 6.96878884,217.035996 6.96878754,218.971798 L6.96878754,232.379114 C6.96879549,232.382202 6.96879947,232.385292 6.96879947,232.388383 C6.96879947,234.324186 5.40878057,235.893465 3.48439973,235.893465 C1.5600189,235.893465 0,234.324186 0,232.388383 L0,79.640591 C0,70.7856026 4.4013032,66.3581748 13.2040416,66.3581748 L35.5331007,66.360212 C39.2142459,66.360212 42.0928739,67.203411 44.1735211,68.8939088 C46.2541684,70.5844066 48.2547608,73.3616113 50.1753582,77.2256062 L92.188218,163.440562 C96.1894627,171.490551 100.190647,180.425906 104.191892,190.246893 L106.592627,190.246893 C105.632328,177.688909 105.152186,168.351062 105.152186,162.23307 L105.152186,67.5221838 C105.152186,67.3896156 105.146837,66.360212 105.146837,66.360212 L103.984866,66.360212 L140.889085,66.360212 L139.727113,66.360212 C139.727113,66.360212 139.722768,67.3608605 139.722768,67.5221838 C139.722768,126.602501 139.722768,219.709707 139.722768,219.709707 C139.722768,228.564695 135.401488,232.992123 126.7588,232.992123 L103.950008,232.992123 C100.268863,232.992123 97.3898206,232.146887 95.3091733,230.456389 C93.228526,228.765891 91.2279337,225.988686 89.3073362,222.124691 L45.8540355,133.253253 C40.4123427,121.500268 37.0513475,112.886908 35.7709492,107.412916 L33.1301408,107.412916 C34.2504894,115.462905 34.8106552,124.317761 34.8106552,133.977748 L34.8106634,225.575686 Z" id="Combined-Shape" fill="#F5E8CC"></path>
                        <g id="Right" transform="translate(26.713739, 235.299296)" fill="#F5E8CC">
                            <g id="Exhaust-Copy-3" transform="translate(1.149849, 0.059895)">
                                <rect id="Rectangle" x="0.0121228883" y="3.86924641" width="6.96879947" height="10.0624425"></rect>
                                <ellipse id="Oval-Copy-5" cx="3.49652262" cy="3.8692524" rx="3.48439973" ry="3.50508189"></ellipse>
                                <ellipse id="Oval-Copy-6" cx="3.49652262" cy="13.9316889" rx="3.48439973" ry="3.50508189"></ellipse>
                            </g>
                            <g id="Exhaust-Copy" transform="translate(1.149849, 21.861841)">
                                <rect id="Rectangle" x="0.0121228883" y="3.86924641" width="6.96879947" height="23.4790244"></rect>
                                <ellipse id="Oval-Copy-5" cx="3.49652262" cy="3.8692524" rx="3.48439973" ry="3.50508189"></ellipse>
                                <ellipse id="Oval-Copy-6" cx="3.49652262" cy="27.3482708" rx="3.48439973" ry="3.50508189"></ellipse>
                            </g>
                        </g>
                        <g id="Middle" transform="translate(12.781690, 245.757042)" fill="#F5E8CC">
                            <g id="Exhaust" transform="translate(0.555726, 0.047916)">
                                <rect id="Rectangle" x="0.600184729" y="5.03121824" width="6.96879947" height="10.0624425"></rect>
                                <ellipse id="Oval-Copy-5" cx="4.08458446" cy="5.03122423" rx="3.48439973" ry="3.50508189"></ellipse>
                                <ellipse id="Oval-Copy-6" cx="4.08458446" cy="15.0936607" rx="3.48439973" ry="3.50508189"></ellipse>
                            </g>
                            <g id="Exhaust-Copy-4" transform="translate(0.555726, 39.662770)">
                                <rect id="Rectangle" x="0.600184729" y="3.86924641" width="6.96879947" height="23.4790244"></rect>
                                <ellipse id="Oval-Copy-5" cx="4.08458446" cy="3.8692524" rx="3.48439973" ry="3.50508189"></ellipse>
                                <ellipse id="Oval-Copy-6" cx="4.07903257" cy="27.3482708" rx="3.48439973" ry="3.50508189"></ellipse>
                            </g>
                        </g>
                        <g id="Exhaust-Copy-2" transform="translate(0.000000, 240.773740)" fill="#F5E8CC">
                            <rect id="Rectangle" x="0" y="5.03121824" width="6.6687079" height="23.4790184"></rect>
                            <ellipse id="Oval-Copy-5" cx="3.33435395" cy="5.03121824" rx="3.33435395" ry="3.35414549"></ellipse>
                            <ellipse id="Oval-Copy-6" cx="3.33435395" cy="28.5102367" rx="3.33435395" ry="3.35414549"></ellipse>
                        </g>
                        <g id="Particles" transform="translate(0.000000, 271.320423)" stroke="#F5E8CC" stroke-width="1.16197183">
                            <circle id="Oval-3-Copy-2" cx="17.4179641" cy="3.48591549" r="2.90492958"></circle>
                            <path d="M28.4408877,24.151247 C28.4384855,24.1499497 28.4361172,24.14878 28.4337901,24.1477421 C28.4404478,24.1507115 28.4483661,24.1537289 28.4576948,24.1568154 Z M29.7106469,24.4014085 C30.1247501,24.5247098 30.472946,24.7126045 30.7616881,25.0013466 C31.0503785,25.2900371 31.238283,25.6381652 31.3616262,26.0521733 C31.4849694,25.6381652 31.6728739,25.2900371 31.9615644,25.0013466 C32.2503064,24.7126046 32.5985021,24.5247099 33.0126051,24.4014085 C32.5985021,24.278107 32.2503064,24.0902123 31.9615644,23.8014703 C31.6728224,23.5127283 31.4849277,23.1645326 31.3616262,22.7504296 C31.2383248,23.1645326 31.05043,23.5127283 30.7616881,23.8014703 C30.472946,24.0902124 30.1247501,24.2781071 29.7106469,24.4014085 Z M31.6130648,27.3236441 C31.613876,27.325634 31.6146834,27.3275285 31.6154871,27.3293306 C31.6130934,27.3239638 31.6099996,27.3183781 31.6062572,27.3126615 Z M31.1112706,27.3222317 C31.1099733,27.3246344 31.1088034,27.3270031 31.1077653,27.3293306 C31.1107354,27.3226716 31.1137538,27.3147505 31.1168416,27.3054177 Z M28.4394741,24.6526535 C28.4374852,24.6534644 28.4355915,24.6542713 28.4337901,24.6550748 C28.4391554,24.6526818 28.4447397,24.6495883 28.4504549,24.6458458 Z" id="Rectangle-6-Copy"></path>
                            <path d="M0.565177133,13.6935005 C0.562774852,13.6922032 0.56040659,13.6910335 0.55807953,13.6899956 C0.564737155,13.692965 0.572655509,13.6959824 0.581984152,13.6990689 Z M1.83493629,13.943662 C2.24903952,14.0669633 2.59723536,14.2548581 2.88597745,14.5436001 C3.17466789,14.8322906 3.36257244,15.1804187 3.48591561,15.5944269 C3.60925878,15.1804187 3.79716333,14.8322906 4.08585377,14.5436001 C4.37459575,14.2548582 4.72279146,14.0669634 5.1368945,13.943662 C4.72279146,13.8203605 4.37459575,13.6324658 4.08585377,13.3437238 C3.79711179,13.0549818 3.60921707,12.7067861 3.48591561,12.2926831 C3.36261415,12.7067861 3.17471943,13.0549818 2.88597745,13.3437238 C2.59723536,13.6324659 2.24903952,13.8203606 1.83493629,13.943662 Z M3.23555994,16.8644852 C3.23426266,16.8668879 3.23309284,16.8692566 3.23205469,16.8715841 C3.23502481,16.8649252 3.2380432,16.857004 3.24113103,16.8476712 Z M3.23467016,11.0215097 C3.23385927,11.0195208 3.23305232,11.0176271 3.23224888,11.0158257 C3.23464187,11.021191 3.23773538,11.0267752 3.24147784,11.0324905 Z M0.56376349,14.194907 C0.561774565,14.1957179 0.559880899,14.1965249 0.55807953,14.1973283 C0.563444781,14.1949353 0.569029049,14.1918418 0.57474432,14.1880993 Z" id="Rectangle-6-Copy"></path>
                        </g>
                    </g>
                    <circle id="i-Punkt" stroke="#F5E8CC" stroke-width="6.91605634" fill="#F5E8CC" cx="602.923944" cy="23.1000001" r="13.8321128"></circle>
                    <g id="Particles" transform="translate(539.735915, 13.362676)" stroke="#F5E8CC" stroke-width="1.16197183">
                        <circle id="Oval-3-Copy-3" cx="3.48591549" cy="33.1161972" r="2.90492958"></circle>
                        <path d="M10.3428115,4.8795856 C10.3404093,4.87828834 10.338041,4.87711865 10.3357139,4.87608074 C10.3423716,4.87905016 10.3502899,4.88206754 10.3596186,4.88515403 Z M11.6125707,5.12974708 C12.0266739,5.25304846 12.3748698,5.44094316 12.6636119,5.72968525 C12.9523023,6.01837569 13.1402068,6.36650381 13.26355,6.78051198 C13.3868932,6.36650381 13.5747977,6.01837569 13.8634882,5.72968525 C14.1522302,5.44094327 14.5004259,5.25304854 14.9145289,5.12974708 C14.5004259,5.00644562 14.1522302,4.8185509 13.8634882,4.52980892 C13.5747462,4.24106694 13.3868515,3.89287123 13.26355,3.4787682 C13.1402486,3.89287123 12.9523538,4.24106694 12.6636119,4.52980892 C12.3748698,4.818551 12.0266739,5.00644571 11.6125707,5.12974708 Z M13.5149886,8.05198273 C13.5157998,8.05397264 13.5166072,8.05586716 13.5174109,8.05766925 C13.5150172,8.05230243 13.5119234,8.04671675 13.508181,8.04100016 Z M13.0131943,8.05057034 C13.0118971,8.05297303 13.0107272,8.05534172 13.0096891,8.05766925 C13.0126592,8.05101026 13.0156776,8.04308915 13.0187654,8.03375631 Z M10.3413979,5.38099214 C10.339409,5.38180303 10.3375153,5.38260998 10.3357139,5.38341342 C10.3410792,5.38102043 10.3466635,5.37792692 10.3523787,5.37418446 Z" id="Rectangle-6-Copy-2" transform="translate(13.263550, 5.129747) rotate(56.000000) translate(-13.263550, -5.129747) "></path>
                        <path d="M4.65219057,55.5445984 C4.64978829,55.5433012 4.64742003,55.5421315 4.64509297,55.5410936 C4.6517506,55.544063 4.65966895,55.5470804 4.66899759,55.5501669 Z M5.92194973,55.7947599 C6.33605296,55.9180613 6.6842488,56.105956 6.97299089,56.3946981 C7.26168133,56.6833885 7.44958588,57.0315166 7.57292905,57.4455248 C7.69627222,57.0315166 7.88417677,56.6833885 8.17286721,56.3946981 C8.46160919,56.1059561 8.8098049,55.9180614 9.22390794,55.7947599 C8.8098049,55.6714585 8.46160919,55.4835637 8.17286721,55.1948218 C7.88412523,54.9060798 7.69623051,54.5578841 7.57292905,54.143781 C7.44962759,54.5578841 7.26173287,54.9060798 6.97299089,55.1948218 C6.6842488,55.4835638 6.33605296,55.6714585 5.92194973,55.7947599 Z M7.32257338,58.7155832 C7.3212761,58.7179859 7.32010628,58.7203546 7.31906813,58.7226821 C7.32203825,58.7160231 7.32505664,58.708102 7.32814447,58.6987691 Z M7.3216836,52.8726076 C7.32087271,52.8706187 7.32006576,52.868725 7.31926232,52.8669237 C7.32165531,52.8722889 7.32474882,52.8778732 7.32849128,52.8835885 Z M4.65077693,56.046005 C4.648788,56.0468159 4.64689434,56.0476228 4.64509297,56.0484263 C4.65045822,56.0460333 4.65604249,56.0429398 4.66175776,56.0391973 Z" id="Rectangle-6-Copy-3" transform="translate(7.572929, 55.794760) rotate(11.000000) translate(-7.572929, -55.794760) "></path>
                    </g>
                    <g id="Block-Top" transform="translate(393.873593, 62.746479)">
                        <rect id="Rectangle-3" fill="#F5E8CC" x="6.29237288" y="5.26304888" width="69.9152542" height="7.51864126"></rect>
                        <path d="M4.19491525,3.75932063 L78.3050847,3.75932063" id="Line" stroke="#F5E8CC" stroke-width="1.3943662" opacity="0.8"></path>
                        <path d="M2.09745763,1.87966031 L80.4025424,1.87966031" id="Line-Copy-11" stroke="#F5E8CC" stroke-width="0.697183099" opacity="0.6"></path>
                        <path d="M0,0.375932063 L82.5,0.375932063" id="Line-Copy-12" stroke="#F5E8CC" stroke-width="0.697183099" opacity="0.3"></path>
                    </g>
                    <g id="Block-Bottom" transform="translate(528.290486, 252.728873) rotate(-180.000000) translate(-528.290486, -252.728873) translate(487.040486, 246.338028)">
                        <rect id="Rectangle-3" fill="#F5E8CC" x="6.29237288" y="5.26304888" width="69.9152542" height="7.51864126"></rect>
                        <path d="M4.19491525,3.75932063 L78.3050847,3.75932063" id="Line" stroke="#F5E8CC" stroke-width="1.3943662" opacity="0.8"></path>
                        <path d="M2.09745763,1.87966031 L80.4025424,1.87966031" id="Line-Copy-11" stroke="#F5E8CC" stroke-width="0.697183099" opacity="0.6"></path>
                        <path d="M0,0.375932063 L82.5,0.375932063" id="Line-Copy-12" stroke="#F5E8CC" stroke-width="0.697183099" opacity="0.3"></path>
                    </g>
                    <g id="Disc-Trail" transform="translate(519.959150, 8.133803)" stroke="#F5E8CC" stroke-linecap="round" stroke-width="6.91605634">
                        <path d="M58.0924561,0.892778934 C53.7486354,1.55279121 49.5375493,2.61687622 45.4987372,4.04549434 M21.6137059,18.4859422 C11.459355,27.8799701 4.12829005,40.281862 1.0360968,54.2760325" id="Oval-2"></path>
                        <path d="M51.0532445,16.7613593 C42.7096537,19.5433985 35.2501004,24.2586572 29.2060578,30.3756622 M17.9513255,46.876753 C15.9408051,51.415524 14.5228518,56.2752653 13.7956021,61.3578401" id="Oval-2-Copy-2"></path>
                        <path d="M46.0896524,34.3673148 C40.0532582,38.2634947 35.0925965,43.6831833 31.7514814,50.0825667" id="Oval-2-Copy-4"></path>
                    </g>
                </g>
                <path d="M199.63254,103.043227 C199.771972,103.077702 199.910688,103.112978 200.048927,103.149133 C203.796138,104.129171 206.895161,105.692614 209.419149,108.216602 C211.943015,110.740468 213.506677,113.839364 214.487111,117.586343 C214.523093,117.723855 214.558205,117.86184 214.592523,118.00053 C214.626841,117.86184 214.661954,117.723855 214.697935,117.586343 C215.678369,113.839364 217.242031,110.740468 219.765897,108.216602 C222.289885,105.692615 225.388908,104.129171 229.136118,103.149132 C229.274355,103.112977 229.41307,103.077701 229.5525,103.043227 C229.41307,103.008753 229.274355,102.973477 229.136118,102.937323 C225.388908,101.957283 222.289885,100.39384 219.765897,97.8698529 C217.24191,95.3458658 215.678467,92.2468424 214.698427,88.4996323 C214.662273,88.361395 214.626997,88.22268 214.592523,88.0832499 C214.558049,88.22268 214.522773,88.361395 214.486619,88.4996323 C213.506579,92.2468424 211.943136,95.3458658 209.419149,97.8698529 C206.895161,100.39384 203.796138,101.957283 200.048927,102.937322 C199.910688,102.973477 199.771972,103.008753 199.63254,103.043227 Z" id="Rectangle-6-Copy" stroke="#F5E8CC" stroke-width="8.71478873"></path>
                <path d="M812.572681,103.043227 C812.712113,103.077702 812.850829,103.112978 812.989068,103.149133 C816.736279,104.129171 819.835302,105.692614 822.35929,108.216602 C824.883156,110.740468 826.446818,113.839364 827.427252,117.586343 C827.463233,117.723855 827.498346,117.86184 827.532664,118.00053 C827.566982,117.86184 827.602094,117.723855 827.638076,117.586343 C828.61851,113.839364 830.182172,110.740468 832.706038,108.216602 C835.230026,105.692615 838.329049,104.129171 842.076259,103.149132 C842.214496,103.112977 842.353211,103.077701 842.492641,103.043227 C842.353211,103.008753 842.214496,102.973477 842.076259,102.937323 C838.329049,101.957283 835.230026,100.39384 832.706038,97.8698529 C830.182051,95.3458658 828.618608,92.2468424 827.638568,88.4996323 C827.602414,88.361395 827.567138,88.22268 827.532664,88.0832499 C827.49819,88.22268 827.462914,88.361395 827.42676,88.4996323 C826.44672,92.2468424 824.883277,95.3458658 822.35929,97.8698529 C819.835302,100.39384 816.736279,101.957283 812.989068,102.937322 C812.850829,102.973477 812.712113,103.008753 812.572681,103.043227 Z" id="Rectangle-6-Copy-4" stroke="#F5E8CC" stroke-width="8.71478873"></path>
            </g>
            <g id="Logo-Group-Copy">
                <g id="Logo">
                    <text id="SNIP" font-family="Exo2-Bold, Exo 2" font-size="240.946479" font-weight="bold" fill="#FFFFFF">
                        <tspan x="253.446042" y="243">S</tspan>
                        <tspan x="393.676893" y="243" fill-opacity="0">N</tspan>
                        <tspan x="567.640251" y="243">IP</tspan>
                    </text>
                    <g id="N" transform="translate(410.757042, 11.038732)">
                        <path d="M34.8106634,225.575686 C34.8116672,225.610364 34.8121726,225.645168 34.8121726,225.680092 C34.8121726,227.615895 33.2592787,229.185174 31.3436868,229.185174 C29.428095,229.185174 27.8752011,227.615895 27.8752011,225.680092 C27.8752011,225.659853 27.8753708,225.639654 27.8757089,225.619496 L27.8752011,207.232285 C27.8751843,205.296485 26.3151667,203.72721 24.3907878,203.72721 C22.4664096,203.72721 20.9063924,205.296484 20.9063881,207.232283 L20.9063881,237.410332 C20.906396,237.413421 20.9064,237.41651 20.9064,237.419601 C20.9064,239.355404 19.3463811,240.924683 17.4220003,240.924683 C15.4976194,240.924683 13.9376005,239.355404 13.9376005,237.419601 L13.9376005,218.971795 C13.9375838,217.035994 12.3775661,215.466719 10.4531873,215.466719 C8.52880724,215.466719 6.96878884,217.035996 6.96878754,218.971798 L6.96878754,232.379114 C6.96879549,232.382202 6.96879947,232.385292 6.96879947,232.388383 C6.96879947,234.324186 5.40878057,235.893465 3.48439973,235.893465 C1.5600189,235.893465 0,234.324186 0,232.388383 L0,79.640591 C0,70.7856026 4.4013032,66.3581748 13.2040416,66.3581748 L35.5331007,66.360212 C39.2142459,66.360212 42.0928739,67.203411 44.1735211,68.8939088 C46.2541684,70.5844066 48.2547608,73.3616113 50.1753582,77.2256062 L92.188218,163.440562 C96.1894627,171.490551 100.190647,180.425906 104.191892,190.246893 L106.592627,190.246893 C105.632328,177.688909 105.152186,168.351062 105.152186,162.23307 L105.152186,67.5221838 C105.152186,67.3896156 105.146837,66.360212 105.146837,66.360212 L103.984866,66.360212 L140.889085,66.360212 L139.727113,66.360212 C139.727113,66.360212 139.722768,67.3608605 139.722768,67.5221838 C139.722768,126.602501 139.722768,219.709707 139.722768,219.709707 C139.722768,228.564695 135.401488,232.992123 126.7588,232.992123 L103.950008,232.992123 C100.268863,232.992123 97.3898206,232.146887 95.3091733,230.456389 C93.228526,228.765891 91.2279337,225.988686 89.3073362,222.124691 L45.8540355,133.253253 C40.4123427,121.500268 37.0513475,112.886908 35.7709492,107.412916 L33.1301408,107.412916 C34.2504894,115.462905 34.8106552,124.317761 34.8106552,133.977748 L34.8106634,225.575686 Z" id="Combined-Shape" fill="#FFFFFF"></path>
                        <g id="Right" transform="translate(26.713739, 235.299296)" fill="#FFFFFF">
                            <g id="Exhaust-Copy-3" transform="translate(1.149849, 0.059895)">
                                <rect id="Rectangle" x="0.0121228883" y="3.86924641" width="6.96879947" height="10.0624425"></rect>
                                <ellipse id="Oval-Copy-5" cx="3.49652262" cy="3.8692524" rx="3.48439973" ry="3.50508189"></ellipse>
                                <ellipse id="Oval-Copy-6" cx="3.49652262" cy="13.9316889" rx="3.48439973" ry="3.50508189"></ellipse>
                            </g>
                            <g id="Exhaust-Copy" transform="translate(1.149849, 21.861841)">
                                <rect id="Rectangle" x="0.0121228883" y="3.86924641" width="6.96879947" height="23.4790244"></rect>
                                <ellipse id="Oval-Copy-5" cx="3.49652262" cy="3.8692524" rx="3.48439973" ry="3.50508189"></ellipse>
                                <ellipse id="Oval-Copy-6" cx="3.49652262" cy="27.3482708" rx="3.48439973" ry="3.50508189"></ellipse>
                            </g>
                        </g>
                        <g id="Middle" transform="translate(12.781690, 245.757042)" fill="#FFFFFF">
                            <g id="Exhaust" transform="translate(0.555726, 0.047916)">
                                <rect id="Rectangle" x="0.600184729" y="5.03121824" width="6.96879947" height="10.0624425"></rect>
                                <ellipse id="Oval-Copy-5" cx="4.08458446" cy="5.03122423" rx="3.48439973" ry="3.50508189"></ellipse>
                                <ellipse id="Oval-Copy-6" cx="4.08458446" cy="15.0936607" rx="3.48439973" ry="3.50508189"></ellipse>
                            </g>
                            <g id="Exhaust-Copy-4" transform="translate(0.555726, 39.662770)">
                                <rect id="Rectangle" x="0.600184729" y="3.86924641" width="6.96879947" height="23.4790244"></rect>
                                <ellipse id="Oval-Copy-5" cx="4.08458446" cy="3.8692524" rx="3.48439973" ry="3.50508189"></ellipse>
                                <ellipse id="Oval-Copy-6" cx="4.07903257" cy="27.3482708" rx="3.48439973" ry="3.50508189"></ellipse>
                            </g>
                        </g>
                        <g id="Exhaust-Copy-2" transform="translate(0.000000, 240.773740)" fill="#FFFFFF">
                            <rect id="Rectangle" x="0" y="5.03121824" width="6.6687079" height="23.4790184"></rect>
                            <ellipse id="Oval-Copy-5" cx="3.33435395" cy="5.03121824" rx="3.33435395" ry="3.35414549"></ellipse>
                            <ellipse id="Oval-Copy-6" cx="3.33435395" cy="28.5102367" rx="3.33435395" ry="3.35414549"></ellipse>
                        </g>
                        <g id="Particles" transform="translate(0.000000, 271.320423)" stroke="#FFFFFF" stroke-width="1.16197183">
                            <circle id="Oval-3-Copy-2" cx="17.4179641" cy="3.48591549" r="2.90492958"></circle>
                            <path d="M28.4408877,24.151247 C28.4384855,24.1499497 28.4361172,24.14878 28.4337901,24.1477421 C28.4404478,24.1507115 28.4483661,24.1537289 28.4576948,24.1568154 Z M29.7106469,24.4014085 C30.1247501,24.5247098 30.472946,24.7126045 30.7616881,25.0013466 C31.0503785,25.2900371 31.238283,25.6381652 31.3616262,26.0521733 C31.4849694,25.6381652 31.6728739,25.2900371 31.9615644,25.0013466 C32.2503064,24.7126046 32.5985021,24.5247099 33.0126051,24.4014085 C32.5985021,24.278107 32.2503064,24.0902123 31.9615644,23.8014703 C31.6728224,23.5127283 31.4849277,23.1645326 31.3616262,22.7504296 C31.2383248,23.1645326 31.05043,23.5127283 30.7616881,23.8014703 C30.472946,24.0902124 30.1247501,24.2781071 29.7106469,24.4014085 Z M31.6130648,27.3236441 C31.613876,27.325634 31.6146834,27.3275285 31.6154871,27.3293306 C31.6130934,27.3239638 31.6099996,27.3183781 31.6062572,27.3126615 Z M31.1112706,27.3222317 C31.1099733,27.3246344 31.1088034,27.3270031 31.1077653,27.3293306 C31.1107354,27.3226716 31.1137538,27.3147505 31.1168416,27.3054177 Z M28.4394741,24.6526535 C28.4374852,24.6534644 28.4355915,24.6542713 28.4337901,24.6550748 C28.4391554,24.6526818 28.4447397,24.6495883 28.4504549,24.6458458 Z" id="Rectangle-6-Copy"></path>
                            <path d="M0.565177133,13.6935005 C0.562774852,13.6922032 0.56040659,13.6910335 0.55807953,13.6899956 C0.564737155,13.692965 0.572655509,13.6959824 0.581984152,13.6990689 Z M1.83493629,13.943662 C2.24903952,14.0669633 2.59723536,14.2548581 2.88597745,14.5436001 C3.17466789,14.8322906 3.36257244,15.1804187 3.48591561,15.5944269 C3.60925878,15.1804187 3.79716333,14.8322906 4.08585377,14.5436001 C4.37459575,14.2548582 4.72279146,14.0669634 5.1368945,13.943662 C4.72279146,13.8203605 4.37459575,13.6324658 4.08585377,13.3437238 C3.79711179,13.0549818 3.60921707,12.7067861 3.48591561,12.2926831 C3.36261415,12.7067861 3.17471943,13.0549818 2.88597745,13.3437238 C2.59723536,13.6324659 2.24903952,13.8203606 1.83493629,13.943662 Z M3.23555994,16.8644852 C3.23426266,16.8668879 3.23309284,16.8692566 3.23205469,16.8715841 C3.23502481,16.8649252 3.2380432,16.857004 3.24113103,16.8476712 Z M3.23467016,11.0215097 C3.23385927,11.0195208 3.23305232,11.0176271 3.23224888,11.0158257 C3.23464187,11.021191 3.23773538,11.0267752 3.24147784,11.0324905 Z M0.56376349,14.194907 C0.561774565,14.1957179 0.559880899,14.1965249 0.55807953,14.1973283 C0.563444781,14.1949353 0.569029049,14.1918418 0.57474432,14.1880993 Z" id="Rectangle-6-Copy"></path>
                        </g>
                    </g>
                    <circle id="i-Punkt" stroke="#FFFFFF" stroke-width="6.91605634" fill="#FFFFFF" cx="602.923944" cy="23.1000001" r="13.8321128"></circle>
                    <g id="Particles" transform="translate(539.735915, 13.362676)" stroke="#FFFFFF" stroke-width="1.16197183">
                        <circle id="Oval-3-Copy-3" cx="3.48591549" cy="33.1161972" r="2.90492958"></circle>
                        <path d="M10.3428115,4.8795856 C10.3404093,4.87828834 10.338041,4.87711865 10.3357139,4.87608074 C10.3423716,4.87905016 10.3502899,4.88206754 10.3596186,4.88515403 Z M11.6125707,5.12974708 C12.0266739,5.25304846 12.3748698,5.44094316 12.6636119,5.72968525 C12.9523023,6.01837569 13.1402068,6.36650381 13.26355,6.78051198 C13.3868932,6.36650381 13.5747977,6.01837569 13.8634882,5.72968525 C14.1522302,5.44094327 14.5004259,5.25304854 14.9145289,5.12974708 C14.5004259,5.00644562 14.1522302,4.8185509 13.8634882,4.52980892 C13.5747462,4.24106694 13.3868515,3.89287123 13.26355,3.4787682 C13.1402486,3.89287123 12.9523538,4.24106694 12.6636119,4.52980892 C12.3748698,4.818551 12.0266739,5.00644571 11.6125707,5.12974708 Z M13.5149886,8.05198273 C13.5157998,8.05397264 13.5166072,8.05586716 13.5174109,8.05766925 C13.5150172,8.05230243 13.5119234,8.04671675 13.508181,8.04100016 Z M13.0131943,8.05057034 C13.0118971,8.05297303 13.0107272,8.05534172 13.0096891,8.05766925 C13.0126592,8.05101026 13.0156776,8.04308915 13.0187654,8.03375631 Z M10.3413979,5.38099214 C10.339409,5.38180303 10.3375153,5.38260998 10.3357139,5.38341342 C10.3410792,5.38102043 10.3466635,5.37792692 10.3523787,5.37418446 Z" id="Rectangle-6-Copy-2" transform="translate(13.263550, 5.129747) rotate(56.000000) translate(-13.263550, -5.129747) "></path>
                        <path d="M4.65219057,55.5445984 C4.64978829,55.5433012 4.64742003,55.5421315 4.64509297,55.5410936 C4.6517506,55.544063 4.65966895,55.5470804 4.66899759,55.5501669 Z M5.92194973,55.7947599 C6.33605296,55.9180613 6.6842488,56.105956 6.97299089,56.3946981 C7.26168133,56.6833885 7.44958588,57.0315166 7.57292905,57.4455248 C7.69627222,57.0315166 7.88417677,56.6833885 8.17286721,56.3946981 C8.46160919,56.1059561 8.8098049,55.9180614 9.22390794,55.7947599 C8.8098049,55.6714585 8.46160919,55.4835637 8.17286721,55.1948218 C7.88412523,54.9060798 7.69623051,54.5578841 7.57292905,54.143781 C7.44962759,54.5578841 7.26173287,54.9060798 6.97299089,55.1948218 C6.6842488,55.4835638 6.33605296,55.6714585 5.92194973,55.7947599 Z M7.32257338,58.7155832 C7.3212761,58.7179859 7.32010628,58.7203546 7.31906813,58.7226821 C7.32203825,58.7160231 7.32505664,58.708102 7.32814447,58.6987691 Z M7.3216836,52.8726076 C7.32087271,52.8706187 7.32006576,52.868725 7.31926232,52.8669237 C7.32165531,52.8722889 7.32474882,52.8778732 7.32849128,52.8835885 Z M4.65077693,56.046005 C4.648788,56.0468159 4.64689434,56.0476228 4.64509297,56.0484263 C4.65045822,56.0460333 4.65604249,56.0429398 4.66175776,56.0391973 Z" id="Rectangle-6-Copy-3" transform="translate(7.572929, 55.794760) rotate(11.000000) translate(-7.572929, -55.794760) "></path>
                    </g>
                    <g id="Block-Top" transform="translate(393.873593, 62.746479)">
                        <rect id="Rectangle-3" fill="#FFFFFF" x="6.29237288" y="5.26304888" width="69.9152542" height="7.51864126"></rect>
                        <path d="M4.19491525,3.75932063 L78.3050847,3.75932063" id="Line" stroke="#FFFFFF" stroke-width="1.3943662" opacity="0.8"></path>
                        <path d="M2.09745763,1.87966031 L80.4025424,1.87966031" id="Line-Copy-11" stroke="#FFFFFF" stroke-width="0.697183099" opacity="0.6"></path>
                        <path d="M0,0.375932063 L82.5,0.375932063" id="Line-Copy-12" stroke="#FFFFFF" stroke-width="0.697183099" opacity="0.3"></path>
                    </g>
                    <g id="Block-Bottom" transform="translate(528.290486, 252.728873) rotate(-180.000000) translate(-528.290486, -252.728873) translate(487.040486, 246.338028)">
                        <rect id="Rectangle-3" fill="#FFFFFF" x="6.29237288" y="5.26304888" width="69.9152542" height="7.51864126"></rect>
                        <path d="M4.19491525,3.75932063 L78.3050847,3.75932063" id="Line" stroke="#FFFFFF" stroke-width="1.3943662" opacity="0.8"></path>
                        <path d="M2.09745763,1.87966031 L80.4025424,1.87966031" id="Line-Copy-11" stroke="#FFFFFF" stroke-width="0.697183099" opacity="0.6"></path>
                        <path d="M0,0.375932063 L82.5,0.375932063" id="Line-Copy-12" stroke="#FFFFFF" stroke-width="0.697183099" opacity="0.3"></path>
                    </g>
                    <g id="Disc-Trail" transform="translate(519.959150, 8.133803)" stroke="#FFFFFF" stroke-linecap="round" stroke-width="6.91605634">
                        <path d="M58.0924561,0.892778934 C53.7486354,1.55279121 49.5375493,2.61687622 45.4987372,4.04549434 M21.6137059,18.4859422 C11.459355,27.8799701 4.12829005,40.281862 1.0360968,54.2760325" id="Oval-2"></path>
                        <path d="M51.0532445,16.7613593 C42.7096537,19.5433985 35.2501004,24.2586572 29.2060578,30.3756622 M17.9513255,46.876753 C15.9408051,51.415524 14.5228518,56.2752653 13.7956021,61.3578401" id="Oval-2-Copy-2"></path>
                        <path d="M46.0896524,34.3673148 C40.0532582,38.2634947 35.0925965,43.6831833 31.7514814,50.0825667" id="Oval-2-Copy-4"></path>
                    </g>
                </g>
                <path d="M199.63254,103.043227 C199.771972,103.077702 199.910688,103.112978 200.048927,103.149133 C203.796138,104.129171 206.895161,105.692614 209.419149,108.216602 C211.943015,110.740468 213.506677,113.839364 214.487111,117.586343 C214.523093,117.723855 214.558205,117.86184 214.592523,118.00053 C214.626841,117.86184 214.661954,117.723855 214.697935,117.586343 C215.678369,113.839364 217.242031,110.740468 219.765897,108.216602 C222.289885,105.692615 225.388908,104.129171 229.136118,103.149132 C229.274355,103.112977 229.41307,103.077701 229.5525,103.043227 C229.41307,103.008753 229.274355,102.973477 229.136118,102.937323 C225.388908,101.957283 222.289885,100.39384 219.765897,97.8698529 C217.24191,95.3458658 215.678467,92.2468424 214.698427,88.4996323 C214.662273,88.361395 214.626997,88.22268 214.592523,88.0832499 C214.558049,88.22268 214.522773,88.361395 214.486619,88.4996323 C213.506579,92.2468424 211.943136,95.3458658 209.419149,97.8698529 C206.895161,100.39384 203.796138,101.957283 200.048927,102.937322 C199.910688,102.973477 199.771972,103.008753 199.63254,103.043227 Z" id="Rectangle-6-Copy" stroke="#FFFFFF" stroke-width="8.71478873"></path>
                <path d="M812.572681,103.043227 C812.712113,103.077702 812.850829,103.112978 812.989068,103.149133 C816.736279,104.129171 819.835302,105.692614 822.35929,108.216602 C824.883156,110.740468 826.446818,113.839364 827.427252,117.586343 C827.463233,117.723855 827.498346,117.86184 827.532664,118.00053 C827.566982,117.86184 827.602094,117.723855 827.638076,117.586343 C828.61851,113.839364 830.182172,110.740468 832.706038,108.216602 C835.230026,105.692615 838.329049,104.129171 842.076259,103.149132 C842.214496,103.112977 842.353211,103.077701 842.492641,103.043227 C842.353211,103.008753 842.214496,102.973477 842.076259,102.937323 C838.329049,101.957283 835.230026,100.39384 832.706038,97.8698529 C830.182051,95.3458658 828.618608,92.2468424 827.638568,88.4996323 C827.602414,88.361395 827.567138,88.22268 827.532664,88.0832499 C827.49819,88.22268 827.462914,88.361395 827.42676,88.4996323 C826.44672,92.2468424 824.883277,95.3458658 822.35929,97.8698529 C819.835302,100.39384 816.736279,101.957283 812.989068,102.937322 C812.850829,102.973477 812.712113,103.008753 812.572681,103.043227 Z" id="Rectangle-6-Copy-4" stroke="#FFFFFF" stroke-width="8.71478873"></path>
            </g>
        </g>
        <g id="Group-2" transform="translate(50.000000, 490.000000)">
            <path d="M289.326667,89.2857143 L10.5088889,89.2857143 C4.71555556,89.2857143 0,84.5357143 0,78.7209821 L0,10.5491071 C0,4.73214286 4.71555556,0 10.5088889,0 L289.326667,0 C295.117778,0 300,4.73214286 300,10.5491071 L300,78.7209821 C300,84.5357143 295.117778,89.2857143 289.326667,89.2857143 L289.326667,89.2857143 L289.326667,89.2857143 Z" id="Shape" fill="#FFFFFF"></path>
            <path d="M297.871111,78.7366071 C297.871111,83.4598214 294.062222,87.2857143 289.351111,87.2857143 L10.5311111,87.2857143 C5.82222222,87.2857143 2,83.4598214 2,78.7366071 L2,10.5602679 C2,5.83928571 5.82222222,2 10.5311111,2 L289.348889,2 C294.062222,2 297.868889,5.83928571 297.868889,10.5602679 L297.871111,78.7366071 L297.871111,78.7366071 L297.871111,78.7366071 Z" id="Shape" fill="#F0326B"></path>
            <text id="www.snip.rocks" font-family="Exo2-BoldItalic, Exo 2" font-size="36" font-style="italic" font-weight="bold" fill="#FFFFFF">
                <tspan x="10.734" y="75">www.snip.rocks</tspan>
            </text>
            <text id="Watch-Trailer-at" font-family="Exo2-Bold, Exo 2" font-size="24" font-weight="bold" fill="#FFFFFF">
                <tspan x="58.2" y="34">Watch Trailer at</tspan>
            </text>
        </g>
    </g>
</svg>