<?xml version="1.0" encoding="UTF-8"?>
<svg width="152px" height="24px" viewBox="0 0 152 24" version="1.1" xmlns="http://www.w3.org/2000/svg" xmlns:xlink="http://www.w3.org/1999/xlink">
    <!-- Generator: Sketch 51.3 (57544) - http://www.bohemiancoding.com/sketch -->
    <title>static/images/logo</title>
    <desc>Created with Sketch.</desc>
    <defs></defs>
    <g id="static/images/logo" stroke="none" stroke-width="1" fill="none" fill-rule="evenodd">
        <rect fill="#1F2533" x="0" y="0" width="152" height="24"></rect>
        <g id="GitCoach">
            <g id="Group">
                <path d="M19.47457,20.2038069 L18.6803558,19.4095928 L19.4733728,18.6165758 L20.2675869,19.41079 L19.47457,20.2038069 Z M20.2675869,20.9968239 L21.0606039,20.2038069 L23.0685768,22.2117799 L29.4258877,15.8553989 L31.0130758,15.8531992 L23.861536,23.004739 L23.8663041,23.0095072 L23.0732872,23.8025241 L20.2675869,20.9968239 Z M17.8873389,18.6165758 L7.9909784,8.72021534 L7.98202134,8.7291724 L7.18900439,7.93615545 L7.19796144,7.92719839 L7.18900439,7.91824134 L7.98202134,7.12522439 L7.9909784,7.13418144 L15.1311458,-0.00598593713 L15.1371317,-4.47558657e-16 L26.3634783,0 L25.2402899,1.12149533 L15.5896984,1.12149533 L8.78399535,7.92719839 L18.6803558,17.8235589 L17.8873389,18.6165758 Z" id="Combined-Shape" fill="#F0326B"></path>
                <path d="M23.0256895,16.6521798 L16.6731302,23.004739 L16.6778983,23.0095072 L15.8848814,23.8025241 L0.802572598,8.72021534 L0.793615545,8.7291724 L0.000598593713,7.93615545 L0.00955564745,7.92719839 L0.000598593713,7.91824134 L0.793615545,7.12522439 L0.802572598,7.13418144 L7.94273998,-0.00598593713 L7.94872591,4.44956572e-16 L13.9657246,0 L12.8425362,1.12149533 L8.40129261,1.12149533 L1.59558955,7.92719839 L15.8801132,22.2117221 L22.2327414,15.8590939 L15.8847281,9.50997818 L15.8825286,7.92298603 L23.0256889,15.0661464 L23.031653,15.0601823 L23.82467,15.8531992 L23.8187059,15.8591633 L23.82467,15.8651274 L23.031653,16.6581444 L23.0256895,16.6521798 Z" id="Combined-Shape" fill="#FFFFFF"></path>
            </g>
        </g>
        <text id="Git.Coach" font-family="TitilliumWeb-Thin, Titillium Web" font-size="23" font-style="condensed" font-weight="300" fill="#FFFFFF">
            <tspan x="34" y="20">Git.Coach</tspan>
        </text>
    </g>
</svg>