<?xml version="1.0" encoding="UTF-8"?>
<svg width="152px" height="24px" viewBox="0 0 152 24" version="1.1" xmlns="http://www.w3.org/2000/svg" xmlns:xlink="http://www.w3.org/1999/xlink">
    <!-- Generator: Sketch 51.3 (57544) - http://www.bohemiancoding.com/sketch -->
    <title>static/images/logo</title>
    <desc>Created with Sketch.</desc>
    <defs></defs>
    <g id="static/images/logo" stroke="none" stroke-width="1" fill="none" fill-rule="evenodd">
        <rect fill="#1F2533" x="0" y="0" width="152" height="24"></rect>
        <g id="GitCoach">
            <g id="Group">
                <path d="M19.47457,20.2038069 L18.6803558,19.4095928 L19.4733728,18.6165758 L20.2675869,19.41079 L19.47457,20.2038069 Z M20.2675869,20.9968239 L21.0606039,20.2038069 L23.0685768,22.2117799 L29.4258877,15.8553989 L31.0130758,15.8531992 L23.861536,23.004739 L23.8663041,23.0095072 L23.0732872,23.8025241 L20.2675869,20.9968239 Z M17.8873389,18.6165758 L7.9909784,8.72021534 L7.98202134,8.7291724 L7.18900439,7.93615545 L7.19796144,7.92719839 L7.18900439,7.91824134 L7.98202134,7.12522439 L7.9909784,7.13418144 L15.1311458,-0.00598593713 L15.1371317,-4.47558657e-16 L26.3634783,0 L25.2402899,1.12149533 L15.5896984,1.12149533 L8.78399535,7.92719839 L18.6803558,17.8235589 L17.8873389,18.6165758 Z" id="Combined-Shape" fill="#F0326B"></path>
                <path d="M23.0256895,16.6521798 L16.6731302,23.004739 L16.6778983,23.0095072 L15.8848814,23.8025241 L0.802572598,8.72021534 L0.793615545,8.7291724 L0.000598593713,7.93615545 L0.00955564745,7.92719839 L0.000598593713,7.91824134 L0.793615545,7.12522439 L0.802572598,7.13418144 L7.94273998,-0.00598593713 L7.94872591,4.44956572e-16 L13.9657246,0 L12.8425362,1.12149533 L8.40129261,1.12149533 L1.59558955,7.92719839 L15.8801132,22.2117221 L22.2327414,15.8590939 L15.8847281,9.50997818 L15.8825286,7.92298603 L23.0256889,15.0661464 L23.031653,15.0601823 L23.82467,15.8531992 L23.8187059,15.8591633 L23.82467,15.8651274 L23.031653,16.6581444 L23.0256895,16.6521798 Z" id="Combined-Shape" fill="#FFFFFF"></path>
            </g>
        </g>
        <path d="M42.257,13.445 L42.257,11.858 L46.65,11.858 L46.65,19.678 C44.7179903,20.0460018 42.9930076,20.23 41.475,20.23 C39.1596551,20.23 37.5535045,19.5630067 36.6565,18.229 C35.7594955,16.8949933 35.311,14.8365139 35.311,12.0535 C35.311,9.27048608 35.7594955,7.20817337 36.6565,5.8665 C37.5535045,4.52482662 39.1443219,3.854 41.429,3.854 C42.8550071,3.854 44.334659,4.0073318 45.868,4.314 L46.65,4.452 L46.581,5.924 C44.6796572,5.60199839 43.0313403,5.441 41.636,5.441 C39.8726578,5.441 38.6843364,5.95082824 38.071,6.9705 C37.4576636,7.99017176 37.151,9.68448816 37.151,12.0535 C37.151,14.4225118 37.4576636,16.1168282 38.071,17.1365 C38.6843364,18.1561718 39.8649913,18.666 41.613,18.666 C42.6863387,18.666 43.7826611,18.5586677 44.902,18.344 L44.902,13.445 L42.257,13.445 Z M49.824,20 L49.824,8.5 L51.549,8.5 L51.549,20 L49.824,20 Z M49.824,5.901 L49.824,3.9 L51.549,3.9 L51.549,5.901 L49.824,5.901 Z M60.818,9.995 L57.161,9.995 L57.161,15.492 C57.161,16.8106733 57.2568324,17.6769979 57.4485,18.091 C57.6401676,18.5050021 58.0963297,18.712 58.817,18.712 L60.864,18.574 L60.979,20 C59.9516615,20.1686675 59.1696693,20.253 58.633,20.253 C57.436994,20.253 56.6090023,19.9616696 56.149,19.379 C55.6889977,18.7963304 55.459,17.6846749 55.459,16.044 L55.459,9.995 L53.826,9.995 L53.826,8.5 L55.459,8.5 L55.459,4.981 L57.161,4.981 L57.161,8.5 L60.818,8.5 L60.818,9.995 Z M62.819,20 L62.819,17.378 L64.705,17.378 L64.705,20 L62.819,20 Z M77.562,19.747 C75.9826588,20.0690016 74.5643396,20.23 73.307,20.23 C72.0496604,20.23 71.0338372,20.0575017 70.2595,19.7125 C69.4851628,19.3674983 68.8871688,18.830837 68.4655,18.1025 C68.0438312,17.374163 67.7525008,16.5385047 67.5915,15.5955 C67.4304992,14.6524953 67.35,13.4756737 67.35,12.065 C67.35,10.6543263 67.4304992,9.46983812 67.5915,8.5115 C67.7525008,7.55316187 68.0438312,6.70600368 68.4655,5.97 C68.8871688,5.23399632 69.4813295,4.69733502 70.248,4.36 C71.0146705,4.02266498 72.0113272,3.854 73.238,3.854 C74.4646728,3.854 75.9059917,4.02266498 77.562,4.36 L77.493,5.855 C75.9443256,5.57899862 74.5643394,5.441 73.353,5.441 C71.6663249,5.441 70.5508361,5.94316165 70.0065,6.9475 C69.4621639,7.95183835 69.19,9.66532122 69.19,12.088 C69.19,13.2993394 69.2398328,14.2729963 69.3395,15.009 C69.4391672,15.7450037 69.6346652,16.4081637 69.926,16.9985 C70.2173348,17.5888363 70.6428305,18.0104987 71.2025,18.2635 C71.7621695,18.5165013 72.5824946,18.643 73.6635,18.643 C74.7445054,18.643 76.0209926,18.5050014 77.493,18.229 L77.562,19.747 Z M80.552,9.673 C81.3033371,8.73766199 82.5721577,8.27 84.3585,8.27 C86.1448423,8.27 87.4098296,8.73766199 88.1535,9.673 C88.8971704,10.608338 89.269,12.1263228 89.269,14.227 C89.269,16.3276772 88.9163369,17.8533286 88.211,18.804 C87.5056631,19.7546714 86.217676,20.23 84.347,20.23 C82.476324,20.23 81.1883369,19.7546714 80.483,18.804 C79.7776631,17.8533286 79.425,16.3276772 79.425,14.227 C79.425,12.1263228 79.8006629,10.608338 80.552,9.673 Z M81.8055,17.723 C82.2118354,18.39767 83.0628269,18.735 84.3585,18.735 C85.6541731,18.735 86.5013313,18.4015033 86.9,17.7345 C87.2986687,17.0674967 87.498,15.8906751 87.498,14.204 C87.498,12.5173249 87.2756689,11.3558365 86.831,10.7195 C86.3863311,10.0831635 85.5621727,9.765 84.3585,9.765 C83.1548273,9.765 82.3268356,10.0831635 81.8745,10.7195 C81.4221644,11.3558365 81.196,12.5134916 81.196,14.1925 C81.196,15.8715084 81.3991646,17.04833 81.8055,17.723 Z M100.194,11.973 L100.194,17.861 C100.24,18.4283362 100.684662,18.7656661 101.528,18.873 L101.459,20.23 C100.247661,20.23 99.3353364,19.9233364 98.722,19.31 C97.3419931,19.9233364 95.9620069,20.23 94.582,20.23 C93.5239947,20.23 92.7190028,19.931003 92.167,19.333 C91.6149972,18.734997 91.339,17.8763389 91.339,16.757 C91.339,15.6376611 91.6226638,14.8135026 92.19,14.2845 C92.7573362,13.7554974 93.6466606,13.4296673 94.858,13.307 L98.469,12.962 L98.469,11.973 C98.469,11.1909961 98.300335,10.631335 97.963,10.294 C97.625665,9.95666498 97.1656696,9.788 96.583,9.788 C95.3563272,9.788 94.0836733,9.8646659 92.765,10.018 L92.052,10.087 L91.983,8.776 C93.6696751,8.43866498 95.1646602,8.27 96.468,8.27 C97.7713399,8.27 98.7181637,8.56899701 99.3085,9.167 C99.8988363,9.76500299 100.194,10.700327 100.194,11.973 Z M93.11,16.665 C93.11,18.0756737 93.6926608,18.781 94.858,18.781 C95.9006719,18.781 96.9279949,18.6046684 97.94,18.252 L98.469,18.068 L98.469,14.273 L95.065,14.595 C94.3749965,14.6563336 93.8766682,14.855665 93.57,15.193 C93.2633318,15.530335 93.11,16.0209968 93.11,16.665 Z M107.899,8.27 C108.405003,8.27 109.263661,8.36199908 110.475,8.546 L111.027,8.615 L110.958,10.018 C109.731327,9.87999931 108.82667,9.811 108.244,9.811 C106.94066,9.811 106.055169,10.1214969 105.5875,10.7425 C105.119831,11.3635031 104.886,12.5134916 104.886,14.1925 C104.886,15.8715084 105.104498,17.0406634 105.5415,17.7 C105.978502,18.3593366 106.886993,18.689 108.267,18.689 L110.981,18.482 L111.05,19.908 C109.623993,20.1226677 108.558337,20.23 107.853,20.23 C106.058991,20.23 104.820837,19.7700046 104.1385,18.85 C103.456163,17.9299954 103.115,16.3775109 103.115,14.1925 C103.115,12.0074891 103.482996,10.4741711 104.219,9.5925 C104.955004,8.71082893 106.181658,8.27 107.899,8.27 Z M115.351,20 L113.626,20 L113.626,3.486 L115.351,3.486 L115.351,9.144 C116.577673,8.56133042 117.758328,8.27 118.893,8.27 C120.426341,8.27 121.457497,8.68399586 121.9865,9.512 C122.515503,10.3400041 122.78,11.8119894 122.78,13.928 L122.78,20 L121.055,20 L121.055,13.974 C121.055,12.3793254 120.897835,11.2868363 120.5835,10.6965 C120.269165,10.1061637 119.606005,9.811 118.594,9.811 C117.627995,9.811 116.692671,9.98733157 115.788,10.34 L115.351,10.501 L115.351,20 Z" id="Git.Coach" fill="#FFFFFF"></path>
    </g>
</svg>