<?xml version="1.0" encoding="UTF-8"?>
<svg width="299px" height="84px" viewBox="0 0 299 84" version="1.1" xmlns="http://www.w3.org/2000/svg" xmlns:xlink="http://www.w3.org/1999/xlink">
    <!-- Generator: Sketch 51.3 (57544) - http://www.bohemiancoding.com/sketch -->
    <title>static/images/client-logo/rheingans_digital_enabler</title>
    <desc>Created with Sketch.</desc>
    <defs></defs>
    <g id="static/images/client-logo/rheingans_digital_enabler" stroke="none" stroke-width="1" fill="none" fill-rule="evenodd">
        <g id="rheingans" fill="#FFFFFF" fill-rule="nonzero">
            <path d="M88.0707317,19.5494828 L92.9819512,19.5494828 C94.5289834,19.4555912 96.0478239,19.9945071 97.1907317,21.0428448 C98.1647508,22.0857613 98.6716292,23.4815473 98.5941463,24.9074138 C98.7754851,27.0017224 97.5639338,28.9672913 95.6131707,29.7436207 L98.42,34.3101724 C98.6646386,34.6451103 98.8161364,35.0390648 98.8590244,35.4518103 C98.8912782,35.8105534 98.762913,36.1651347 98.5085826,36.4198306 C98.2542522,36.6745264 97.9001796,36.803076 97.5419512,36.7707759 C96.9042926,36.7513584 96.3299834,36.3794119 96.0507317,35.805 L92.6307317,30.1847414 L89.3863415,30.1847414 L89.3863415,35.2788793 C89.3611144,36.0850331 88.7012461,36.7254652 87.8958537,36.7254652 C87.0904612,36.7254652 86.4305929,36.0850331 86.4053659,35.2788793 L86.4053659,21.0428448 C86.4021658,20.6203727 86.5590538,20.2124014 86.8443902,19.9012069 C87.1992138,19.6421823 87.6342629,19.5175556 88.0721951,19.5494828 M92.72,22.1874138 L89.3878049,22.1874138 L89.3878049,27.4632759 L92.72,27.4632759 C94.7365854,27.4632759 95.7931707,26.5839655 95.7931707,24.8253448 C95.7931707,23.0667241 94.7409756,22.1874138 92.72,22.1874138" id="Shape"></path>
            <path d="M104.468293,35.2686207 C104.443066,36.0747745 103.783197,36.7152066 102.977805,36.7152066 C102.172412,36.7152066 101.512544,36.0747745 101.487317,35.2686207 L101.487317,20.9549138 C101.512544,20.14876 102.172412,19.5083279 102.977805,19.5083279 C103.783197,19.5083279 104.443066,20.14876 104.468293,20.9549138 L104.468293,26.5751724 L110.869268,26.5751724 L110.869268,20.9549138 C110.894495,20.14876 111.554364,19.5083279 112.359756,19.5083279 C113.165149,19.5083279 113.825017,20.14876 113.850244,20.9549138 L113.850244,35.2700862 C113.825017,36.07624 113.165149,36.7166721 112.359756,36.7166721 C111.554364,36.7166721 110.894495,36.07624 110.869268,35.2700862 L110.869268,29.2101724 L104.468293,29.2101724 L104.468293,35.2700862 L104.468293,35.2686207 Z" id="Pfad_2"></path>
            <path d="M118.850732,19.5494828 L127.445366,19.5494828 C127.805223,19.4989196 128.166648,19.6307352 128.409756,19.9012069 C128.66569,20.153993 128.79464,20.5085767 128.760976,20.8669828 C128.811466,21.2273574 128.67984,21.5893011 128.409756,21.8327586 C128.14901,22.0757703 127.801096,22.2026585 127.445366,22.1844828 L120.166341,22.1844828 L120.166341,26.5810345 L125.434634,26.5810345 C125.794492,26.5304713 126.155916,26.6622869 126.399024,26.9327586 C126.654959,27.1855447 126.783909,27.5401284 126.750244,27.8985345 C126.800735,28.2589091 126.669108,28.6208528 126.399024,28.8643103 C126.138279,29.107322 125.790365,29.2342102 125.434634,29.2160345 L120.166341,29.2160345 L120.166341,34.0522414 L127.882927,34.0522414 C128.242784,34.0016782 128.604209,34.1334938 128.847317,34.4039655 C129.103251,34.6567516 129.232201,35.0113353 129.198537,35.3697414 C129.249027,35.730116 129.117401,36.0920597 128.847317,36.3355172 C128.586571,36.5785289 128.238657,36.7054171 127.882927,36.6872414 L118.850732,36.6872414 C118.428866,36.6904461 118.02148,36.5333326 117.710732,36.2475862 C117.410841,35.9456352 117.251522,35.5313406 117.271707,35.1059483 L117.271707,21.0428448 C117.268507,20.6203727 117.425395,20.2124014 117.710732,19.9012069 C118.038111,19.6543496 118.441391,19.5299255 118.850732,19.5494828" id="Pfad_3"></path>
            <path d="M142.877073,36.6740517 L134.285366,36.6740517 C133.925508,36.7246149 133.564084,36.5927993 133.320976,36.3223276 C133.065041,36.0695415 132.936091,35.7149578 132.969756,35.3565517 C132.919265,34.9961771 133.050892,34.6342334 133.320976,34.3907759 C133.581721,34.1477642 133.929635,34.020876 134.285366,34.0390517 L137.092195,34.0390517 L137.092195,22.1874138 L134.285366,22.1874138 C133.925508,22.237977 133.564084,22.1061614 133.320976,21.8356897 C133.065041,21.5829036 132.936091,21.2283199 132.969756,20.8699138 C132.919265,20.5095391 133.050892,20.1475955 133.320976,19.9041379 C133.581246,19.6600609 133.929217,19.5320946 134.285366,19.5494828 L142.88,19.5494828 C143.239858,19.4989196 143.601282,19.6307352 143.84439,19.9012069 C144.100324,20.153993 144.229274,20.5085767 144.19561,20.8669828 C144.2461,21.2273574 144.114474,21.5893011 143.84439,21.8327586 C143.583645,22.0757703 143.235731,22.2026585 142.88,22.1844828 L140.073171,22.1844828 L140.073171,34.0405172 L142.88,34.0405172 C143.239858,33.989954 143.601282,34.1217696 143.84439,34.3922414 C144.100324,34.6450274 144.229274,34.9996112 144.19561,35.3580172 C144.2461,35.7183919 144.114474,36.0803356 143.84439,36.3237931 C143.583645,36.5668047 143.235731,36.693693 142.88,36.6755172" id="Pfad_4"></path>
            <path d="M148.051707,35.2686207 L148.051707,20.9549138 C148.018617,20.570197 148.145716,20.1888829 148.402927,19.9012069 C148.679113,19.617093 149.059196,19.458277 149.455122,19.4615517 C149.918207,19.4440311 150.354455,19.679013 150.595122,20.0756034 L157.786341,30.4382759 L157.786341,20.9549138 C157.811569,20.14876 158.471437,19.5083279 159.276829,19.5083279 C160.082222,19.5083279 160.74209,20.14876 160.767317,20.9549138 L160.767317,35.2700862 C160.800407,35.654803 160.673308,36.0361171 160.416098,36.3237931 C160.139911,36.607907 159.759828,36.766723 159.363902,36.7634483 C158.900818,36.7809689 158.464569,36.545987 158.223902,36.1493966 L151.032683,25.8746552 L151.032683,35.3594828 C151.033721,35.96348 150.670651,36.5083883 150.113327,36.7392808 C149.556004,36.9701733 148.914633,36.8413938 148.489268,36.4131897 C148.24463,36.0782518 148.093132,35.6842973 148.050244,35.2715517" id="Pfad_5"></path>
            <path d="M182.778537,32.019569 L181.461463,35.6203448 C181.315336,36.232271 180.772623,36.6664614 180.14439,36.6740517 C179.760225,36.7071893 179.379458,36.5799079 179.092195,36.3223276 C178.808489,36.0457446 178.649901,35.6651155 178.653171,35.2686207 C178.644115,35.0314012 178.673773,34.7942915 178.740976,34.5666379 L184.089756,20.5152586 C184.353171,19.7253448 184.790732,19.3736207 185.406829,19.3736207 C186.022927,19.3736207 186.459024,19.7253448 186.723902,20.5152586 L192.072683,34.5666379 C192.138987,34.7642736 192.168742,34.9723621 192.160488,35.1806897 C192.163758,35.5771845 192.00517,35.9578135 191.721463,36.2343966 C191.4342,36.4919768 191.053433,36.6192583 190.669268,36.5861207 C190.041222,36.5780101 189.498789,36.1440438 189.352195,35.5324138 L188.035122,31.9316379 L182.766829,31.9316379 L182.778537,32.019569 Z M187.250732,29.3816379 L185.494634,24.7271552 L183.738537,29.3816379 L187.250732,29.3816379 Z" id="Pfad_6"></path>
            <path d="M194.793171,35.2686207 L194.793171,20.9549138 C194.760081,20.570197 194.88718,20.1888829 195.14439,19.9012069 C195.420576,19.617093 195.800659,19.458277 196.196585,19.4615517 C196.65967,19.4440311 197.095919,19.679013 197.336585,20.0756034 L204.527805,30.4382759 L204.527805,20.9549138 C204.553032,20.14876 205.2129,19.5083279 206.018293,19.5083279 C206.823685,19.5083279 207.483553,20.14876 207.50878,20.9549138 L207.50878,35.2700862 C207.541871,35.654803 207.414772,36.0361171 207.157561,36.3237931 C206.881375,36.607907 206.501292,36.766723 206.105366,36.7634483 C205.642281,36.7809689 205.206032,36.545987 204.965366,36.1493966 L197.774146,25.8746552 L197.774146,35.3594828 C197.775185,35.96348 197.412114,36.5083883 196.854791,36.7392808 C196.297467,36.9701733 195.656096,36.8413938 195.230732,36.4131897 C194.949077,36.0997212 194.792761,35.6932376 194.791707,35.2715517" id="Pfad_7"></path>
            <path d="M210.14,33.9511207 C209.907587,33.649617 209.78381,33.2782692 209.78878,32.8974138 C209.791989,32.0739874 210.457755,31.4072651 211.28,31.4040517 C211.771378,31.3645256 212.244156,31.6009718 212.507805,32.0181034 C212.953893,32.7051115 213.555561,33.277015 214.263902,33.6873276 C215.025623,34.0657246 215.86983,34.2471019 216.719512,34.2149138 C217.582344,34.2759834 218.44224,34.0609571 219.175122,33.6008621 C219.741677,33.2388288 220.075452,32.6043026 220.053171,31.9316379 C220.045164,31.3307468 219.791861,30.7593343 219.352195,30.3503448 C218.856844,29.9038339 218.250004,29.5999781 217.596098,29.4710345 C216.895122,29.2951724 216.104878,29.1193103 215.316098,28.8569828 C214.438049,28.5931897 213.737073,28.3293966 212.948293,28.067069 C212.238439,27.7803778 211.627954,27.2917974 211.192195,26.6616379 C210.713913,25.8999404 210.470121,25.0140958 210.49122,24.114569 C210.440046,22.6716095 211.095639,21.2945282 212.247317,20.4258621 C213.49438,19.52233 215.005443,19.0584639 216.543902,19.1068966 C218.732045,18.8883494 220.860387,19.9046461 222.068293,21.7448276 C222.226179,22.0433456 222.316135,22.3731577 222.331707,22.7106034 C222.352617,23.1103579 222.191111,23.4979901 221.892683,23.7643103 C221.60542,24.0218906 221.224653,24.1491721 220.840488,24.1160345 C220.316854,24.1003392 219.844617,23.7965239 219.612683,23.3261207 C218.955229,22.2220903 217.737281,21.5780313 216.456098,21.6568966 C215.661423,21.611596 214.87037,21.7946437 214.176098,22.1844828 C213.623134,22.558875 213.293633,23.1852778 213.298049,23.8537069 C213.310978,24.3794509 213.570775,24.8682885 213.999024,25.1726724 C214.522707,25.5562024 215.120986,25.8253153 215.755122,25.9625862 C216.456098,26.1384483 217.246341,26.4022414 218.035122,26.5766379 C218.913171,26.840431 219.614146,27.1042241 220.402927,27.3665517 C221.118289,27.6868165 221.727516,28.2048949 222.159024,28.8599138 C222.637307,29.6216114 222.881099,30.5074559 222.86,31.4069828 C222.931322,32.9034199 222.27743,34.342413 221.103902,35.2715517 C219.79665,36.1877635 218.226169,36.6509388 216.631707,36.5905172 C214.135038,37.106971 211.573655,36.0656732 210.142927,33.9525862" id="Pfad_8"></path>
            <path d="M91.76,62.9932759 L87.7195122,62.9932759 C87.4063362,63.000555 87.0989212,62.908198 86.8414634,62.7294828 C86.6216086,62.4888413 86.4967602,62.1762719 86.4902439,61.8501724 L86.4902439,47.0103448 C86.472693,46.679812 86.6011275,46.3582644 86.8414634,46.1310345 C87.0816871,45.9107481 87.3938534,45.7857021 87.7195122,45.7793103 L91.76,45.7793103 C93.6419021,45.6855096 95.4246352,46.6287476 96.4078049,48.2384483 C97.5826199,50.0668169 98.1647678,52.2139801 98.0746341,54.3862931 C98.1647678,56.5586061 97.5826199,58.7057693 96.4078049,60.5341379 C95.410133,62.1282876 93.6372469,63.0663157 91.76,62.9932759 Z M88.3326829,47.5393966 L88.3326829,61.4149138 L91.76,61.4149138 C92.7156504,61.4248479 93.6340766,61.0443546 94.3034146,60.3612069 C95.0003762,59.6466037 95.5123114,58.7721957 95.7946341,57.8141379 C96.379395,55.62802 96.379395,53.3262903 95.7946341,51.1401724 C95.5265713,50.1759966 95.0126714,49.2982329 94.3034146,48.5931034 C93.643779,47.8956917 92.7188464,47.5125029 91.76,47.5393966 L88.3326829,47.5393966 Z" id="Pfad_9"></path>
            <path d="M103.064878,61.3255172 L105.963902,61.3255172 L105.963902,47.537931 L103.070732,47.537931 C102.369268,47.537931 102.018537,47.2746264 102.018537,46.7480172 C102.018537,46.221408 102.369268,45.9581034 103.070732,45.9581034 L110.525366,45.9581034 C111.226829,45.9581034 111.577561,46.221408 111.577561,46.7480172 C111.577561,47.2746264 111.226829,47.537931 110.525366,47.537931 L107.72,47.537931 L107.72,61.4134483 L110.526829,61.4134483 C111.228293,61.4134483 111.579024,61.6767529 111.579024,62.2033621 C111.579024,62.7299713 111.228293,62.9932759 110.526829,62.9932759 L103.072195,62.9932759 C102.370732,62.9932759 102.02,62.7299713 102.02,62.2033621 C102.02,61.6757759 102.37122,61.3240517 103.072195,61.3240517" id="Pfad_10"></path>
            <path d="M133.231707,61.3255172 L136.130732,61.3255172 L136.130732,47.537931 L133.236098,47.537931 C132.534634,47.537931 132.183902,47.2746264 132.183902,46.7480172 C132.183902,46.221408 132.534634,45.9581034 133.236098,45.9581034 L140.690732,45.9581034 C141.392195,45.9581034 141.742927,46.221408 141.742927,46.7480172 C141.742927,47.2746264 141.392195,47.537931 140.690732,47.537931 L137.886829,47.537931 L137.886829,61.4134483 L140.693659,61.4134483 C141.395122,61.4134483 141.745854,61.6767529 141.745854,62.2033621 C141.745854,62.7299713 141.395122,62.9932759 140.693659,62.9932759 L133.239024,62.9932759 C132.537561,62.9932759 132.186829,62.7299713 132.186829,62.2033621 C132.186829,61.6757759 132.538049,61.3240517 133.239024,61.3240517" id="Pfad_11"></path>
            <path d="M146.386341,45.8687069 L157.874146,45.8687069 C158.57561,45.8687069 158.926341,46.1320115 158.926341,46.6586207 C158.926341,47.1852299 158.57561,47.4485345 157.874146,47.4485345 L153.044878,47.4485345 L153.044878,61.7637069 C153.044878,62.5536207 152.781463,62.9932759 152.166829,62.9932759 C151.552195,62.9932759 151.28878,62.5536207 151.28878,61.7637069 L151.28878,47.537931 L146.47561,47.537931 C145.774146,47.537931 145.423415,47.2746264 145.423415,46.7480172 C145.247805,46.1339655 145.599024,45.8687069 146.387805,45.8687069" id="Pfad_12"></path>
            <path d="M171.729756,62.3792241 L170.150732,57.9006034 L164.099512,57.9006034 L162.523415,62.3792241 C162.422902,62.7851254 162.06288,63.072956 161.645366,63.0812069 C161.412261,63.0874518 161.188142,62.9910334 161.032195,62.8174138 C160.856471,62.626691 160.761968,62.3748463 160.76878,62.115431 C160.762758,61.963975 160.792857,61.8132617 160.856585,61.6757759 L166.380976,46.5706897 C166.556585,46.1310345 166.732195,45.8687069 167.081951,45.8687069 C167.431707,45.8687069 167.60878,46.1325 167.782927,46.5706897 L173.307317,61.6757759 C173.370991,61.8132793 173.401088,61.9639795 173.395122,62.115431 C173.401934,62.3748463 173.307431,62.626691 173.131707,62.8174138 C172.97576,62.9910334 172.751642,63.0874518 172.518537,63.0812069 C172.148553,63.0065532 171.847249,62.7384047 171.729756,62.3792241 Z M167.081951,49.2936207 L164.626341,56.2313793 L169.537561,56.2313793 L167.081951,49.2936207 Z" id="Pfad_13"></path>
            <path d="M177.86878,47.0982759 C177.86878,46.3083621 178.132195,45.8687069 178.746829,45.8687069 C179.361463,45.8687069 179.624878,46.3083621 179.624878,47.0982759 L179.624878,61.4134483 L187.604878,61.4134483 C188.306341,61.4134483 188.657073,61.6767529 188.657073,62.2033621 C188.657073,62.7299713 188.306341,62.9932759 187.604878,62.9932759 L179.010244,62.9932759 C178.697068,63.000555 178.389653,62.908198 178.132195,62.7294828 C177.878945,62.5112703 177.747863,62.1830943 177.780976,61.8501724 L177.780976,47.0982759 L177.86878,47.0982759 Z" id="Pfad_14"></path>
            <path d="M197.24878,45.8687069 L205.843415,45.8687069 C206.544878,45.8687069 206.89561,46.1320115 206.89561,46.6586207 C206.89561,47.1852299 206.544878,47.4485345 205.843415,47.4485345 L197.863415,47.4485345 L197.863415,53.3325862 L203.739024,53.3325862 C204.440488,53.3325862 204.79122,53.5958908 204.79122,54.1225 C204.79122,54.6491092 204.440488,54.9124138 203.739024,54.9124138 L197.863415,54.9124138 L197.863415,61.2361207 L206.194634,61.2361207 C206.896098,61.2361207 207.246829,61.4994253 207.246829,62.0260345 C207.246829,62.5526437 206.896098,62.8159483 206.194634,62.8159483 L197.250244,62.8159483 C196.937082,62.8231263 196.629697,62.7307784 196.372195,62.5521552 C196.152225,62.3115864 196.027358,61.9989715 196.020976,61.6728448 L196.020976,47.0103448 C196.003425,46.679812 196.131859,46.3582644 196.372195,46.1310345 C196.629653,45.9523193 196.937068,45.8599623 197.250244,45.8672414" id="Pfad_15"></path>
            <path d="M211.10439,61.8516379 L211.10439,47.0982759 C211.097223,46.7846636 211.189438,46.4768374 211.367805,46.2189655 C211.523819,45.9868639 211.789734,45.8534373 212.06878,45.8672414 C212.508176,45.8525312 212.917142,46.0911999 213.120976,46.4812931 L220.57561,59.3031034 L220.57561,47.0982759 C220.57561,46.3083621 220.839024,45.8687069 221.453659,45.8687069 C222.068293,45.8687069 222.331707,46.3083621 222.331707,47.0982759 L222.331707,61.8516379 C222.338976,62.1652639 222.246751,62.4731206 222.068293,62.7309483 C221.912279,62.9630499 221.646364,63.0964765 221.367317,63.0826724 C220.927921,63.0973826 220.518956,62.8587139 220.315122,62.4686207 L212.948293,49.6468103 L212.948293,61.8531034 C212.948293,62.6430172 212.684878,63.0826724 212.070244,63.0826724 C211.457073,62.9947414 211.105854,62.6430172 211.105854,61.8531034" id="Pfad_16"></path>
            <path d="M236.447805,62.3792241 L234.86878,57.9006034 L228.817561,57.9006034 L227.241463,62.3792241 C227.140951,62.7851254 226.780929,63.072956 226.363415,63.0812069 C226.13031,63.0874518 225.906191,62.9910334 225.750244,62.8174138 C225.57452,62.626691 225.480017,62.3748463 225.486829,62.115431 C225.480863,61.9639795 225.51096,61.8132793 225.574634,61.6757759 L231.099024,46.5706897 C231.274634,46.1310345 231.450244,45.8687069 231.8,45.8687069 C232.149756,45.8687069 232.326829,46.1325 232.500976,46.5706897 L238.025366,61.6757759 C238.08904,61.8132793 238.119137,61.9639795 238.113171,62.115431 C238.119983,62.3748463 238.02548,62.626691 237.849756,62.8174138 C237.693809,62.9910334 237.46969,63.0874518 237.236585,63.0812069 C236.866602,63.0065532 236.565297,62.7384047 236.447805,62.3792241 Z M231.8,49.2936207 L229.34439,56.2313793 L234.25561,56.2313793 L231.8,49.2936207 Z" id="Pfad_17"></path>
            <path d="M243.02439,45.8687069 L247.76,45.8687069 C249.019381,45.7968168 250.253848,46.2406365 251.18,47.0982759 C252.041101,47.9512797 252.489227,49.1371236 252.407805,50.3473276 C252.445478,51.2092036 252.232466,52.0634947 251.794634,52.8064655 C251.403862,53.408436 250.858422,53.8939114 250.21561,54.2118966 C251.097351,54.4413708 251.87282,54.9689296 252.410732,55.7052586 C252.957498,56.4731311 253.234871,57.4007526 253.199512,58.3431897 C253.253965,59.5597772 252.846693,60.7519354 252.059512,61.6801724 C251.22953,62.5837315 250.039159,63.0676617 248.815122,62.9991379 L243.107805,62.9991379 C242.794629,63.006417 242.487214,62.91406 242.229756,62.7353448 C242.009786,62.494776 241.884919,62.1821611 241.878537,61.8560345 L241.878537,47.0103448 C241.861186,46.6798453 241.989588,46.3583789 242.229756,46.1310345 C242.446566,45.9404645 242.730886,45.845379 243.018537,45.8672414 M247.929756,47.5364655 L243.640488,47.5364655 L243.640488,53.5084483 L247.937073,53.5084483 C248.689368,53.573628 249.420929,53.2401173 249.865854,52.6291379 C250.34403,51.9984069 250.591481,51.2223934 250.566829,50.4308621 C250.577301,49.6413815 250.331287,48.8698758 249.865854,48.2325862 C249.347231,47.7420305 248.649192,47.4879779 247.937073,47.5306034 M248.463902,55.1703448 L243.634634,55.1703448 L243.634634,61.3181897 L248.545854,61.3181897 C249.350889,61.4018333 250.143314,61.0707217 250.650244,60.4388793 C251.140848,59.7820258 251.388603,58.9750175 251.35122,58.1556034 C251.375871,57.3640721 251.12842,56.5880587 250.650244,55.9573276 C250.068876,55.3855685 249.266918,55.0969842 248.455122,55.1674138" id="Pfad_18"></path>
            <path d="M257.670244,47.0982759 C257.670244,46.3083621 257.933659,45.8687069 258.548293,45.8687069 C259.162927,45.8687069 259.426341,46.3083621 259.426341,47.0982759 L259.426341,61.4134483 L267.406341,61.4134483 C268.107805,61.4134483 268.458537,61.6767529 268.458537,62.2033621 C268.458537,62.7299713 268.107805,62.9932759 267.406341,62.9932759 L258.811707,62.9932759 C258.498531,63.000555 258.191116,62.908198 257.933659,62.7294828 C257.680409,62.5112703 257.549327,62.1830943 257.582439,61.8501724 L257.582439,47.0982759 L257.670244,47.0982759 Z" id="Pfad_19"></path>
            <path d="M272.665854,45.8687069 L281.260488,45.8687069 C281.961951,45.8687069 282.312683,46.1320115 282.312683,46.6586207 C282.312683,47.1852299 281.961951,47.4485345 281.260488,47.4485345 L273.280488,47.4485345 L273.280488,53.3325862 L279.156098,53.3325862 C279.857561,53.3325862 280.208293,53.5958908 280.208293,54.1225 C280.208293,54.6491092 279.857561,54.9124138 279.156098,54.9124138 L273.280488,54.9124138 L273.280488,61.2361207 L281.611707,61.2361207 C282.313171,61.2361207 282.663902,61.4994253 282.663902,62.0260345 C282.663902,62.5526437 282.313171,62.8159483 281.611707,62.8159483 L272.667317,62.8159483 C272.354141,62.8232274 272.046726,62.7308704 271.789268,62.5521552 C271.569298,62.3115864 271.444431,61.9989715 271.438049,61.6728448 L271.438049,47.0103448 C271.420498,46.679812 271.548932,46.3582644 271.789268,46.1310345 C272.046726,45.9523193 272.354141,45.8599623 272.667317,45.8672414" id="Pfad_20"></path>
            <path d="M288.01122,45.8687069 L292.922439,45.8687069 C294.376279,45.7744478 295.804921,46.2826094 296.873659,47.2741379 C297.858707,48.2382952 298.371731,49.5867186 298.277073,50.9628448 C298.281206,52.0639047 297.944267,53.1391519 297.312683,54.040431 C296.670554,54.9381047 295.741008,55.5886875 294.678537,55.8840517 L298.361951,61.6801724 C298.524131,61.8789762 298.616672,62.1255913 298.625366,62.3821552 C298.652277,62.595198 298.548288,62.8034757 298.361951,62.9097414 C298.221905,63.0450819 298.028247,63.1097274 297.835122,63.0856034 C297.418924,63.0961922 297.037725,62.8534731 296.870732,62.4715517 L292.749756,56.0613793 L288.627317,56.0613793 L288.627317,61.8575 C288.627317,62.6474138 288.363902,63.087069 287.749268,63.087069 C287.134634,63.087069 286.87122,62.6474138 286.87122,61.8575 L286.87122,47.0103448 C286.853669,46.679812 286.982103,46.3582644 287.222439,46.1310345 C287.310244,45.9551724 287.661463,45.8672414 288.01122,45.8672414 M293.098049,47.5364655 L288.538049,47.5364655 L288.538049,54.3862931 L293.098049,54.3862931 C294.015069,54.4202828 294.904811,54.0703528 295.553659,53.4205172 C296.162855,52.7513198 296.479077,51.8656817 296.431707,50.9613793 C296.463818,50.0593816 296.149596,49.1793461 295.553659,48.5022414 C294.927977,47.8178233 294.021594,47.4613488 293.098049,47.5364655" id="Pfad_21"></path>
            <path d="M57.7268293,12.6718103 C52.7614183,4.7768 43.9743215,0.12623629 34.6634146,0.465517241 L6.33902439,0.465517241 C4.77248904,0.419262171 3.24352969,0.950681823 2.04243902,1.95887931 C0.958679742,3.08890817 0.387542314,4.61607321 0.463414634,6.18103448 L0.463414634,18.3873276 L14.0556098,15.4885345 L14.2312195,15.4885345 C14.4068293,15.4885345 14.4946341,15.5764655 14.6702439,15.6643966 C14.8565804,15.7706623 14.9605699,15.9789399 14.9336585,16.1919828 L14.9336585,32.2569828 C14.9253252,32.5607443 14.7054399,32.8170342 14.4068293,32.8710345 L0.463414634,35.7698276 L0.463414634,47.0103448 L28.3502439,41.0383621 L28.5258537,41.0383621 C28.7014634,41.0383621 28.7892683,41.1262931 28.964878,41.2142241 C29.1512146,41.3204898 29.255204,41.5287675 29.2282927,41.7418103 L29.2282927,57.8126724 C29.2199594,58.116434 29.000074,58.3727238 28.7014634,58.4267241 L0.463414634,64.3987069 L0.463414634,75.6465517 L42.644878,66.6013793 L42.8204878,66.6013793 C42.9960976,66.6013793 43.0839024,66.6893103 43.2595122,66.7772414 C43.4458487,66.8835071 43.5498381,67.0917848 43.5229268,67.3048276 L43.5229268,83.8944828 C49.4130294,82.0463572 54.4509253,78.153372 57.7297561,72.9162931 C63.1663415,64.7489655 65.8853659,54.7438793 65.8853659,42.7940517 C65.8853659,30.8442241 63.0770732,20.8362069 57.7268293,12.6718103" id="Pfad_22"></path>
            <path d="M176.376098,33.337069 L175.937073,34.0390517 C174.770714,35.973222 172.668769,37.1441961 170.412683,37.1166379 C168.121045,37.1842946 165.959205,36.0535263 164.705366,34.1313793 C163.547259,32.2631379 162.967285,30.0933985 163.038537,27.8956034 C162.950165,25.6431758 163.664995,23.4327492 165.055122,21.6598276 C166.309528,20.0854795 168.218663,19.1782024 170.229756,19.2006897 C171.270408,19.1914497 172.306484,19.3396733 173.302927,19.6403448 C174.201315,20.022577 175.008391,20.5915385 175.670732,21.309569 C175.985614,21.6086806 176.174137,22.01721 176.197561,22.4512069 C176.200831,22.8477017 176.042243,23.2283308 175.758537,23.5049138 C175.497791,23.7479254 175.149877,23.8748136 174.794146,23.8566379 C174.356664,23.8504845 173.942331,23.6587335 173.654146,23.3290517 C173.248601,22.841595 172.739013,22.4514681 172.162927,22.1874138 C171.584982,21.9282362 170.954585,21.8077969 170.321951,21.8356897 C169.050008,21.7981701 167.851704,22.4318414 167.165366,23.5049138 C166.337069,24.8459564 165.939195,26.4090515 166.025366,27.9835345 C165.92831,29.5868157 166.326326,31.1811652 167.165366,32.5500862 C167.860299,33.6591587 169.104748,34.2994222 170.409756,34.2193103 C171.668958,34.2987996 172.86271,33.6504006 173.482927,32.5500862 L173.482927,30.0880172 L170.763902,30.0880172 C170.404045,30.1385804 170.04262,30.0067648 169.799512,29.7362931 C169.543758,29.4833916 169.41484,29.128896 169.448293,28.7705172 C169.397802,28.4101426 169.529429,28.0481989 169.799512,27.8047414 C170.060258,27.5617297 170.408172,27.4348415 170.763902,27.4530172 L174.884878,27.4530172 C175.306744,27.4498126 175.71413,27.606926 176.024878,27.8926724 C176.324768,28.1946235 176.484088,28.608918 176.463902,29.0343103 L176.376098,33.337069 Z" id="Pfad_23"></path>
            <path d="M115.255122,54.2998276 C115.245181,52.8362792 115.482174,51.3815628 115.956098,49.997069 C116.371245,48.7325277 117.167846,47.6280748 118.236098,46.8359483 C119.333986,45.9766863 120.703277,45.5404003 122.095122,45.6063793 C124.073398,45.5581349 125.970271,46.3951182 127.269756,47.8896552 C127.521419,48.1522776 127.676261,48.4929036 127.70878,48.855431 C127.697947,49.3364951 127.311106,49.723892 126.830732,49.7347414 C126.50483,49.7541478 126.19722,49.5826908 126.041951,49.2950862 C125.100463,48.0103396 123.598528,47.2585657 122.007317,47.2756034 C121.192845,47.2659826 120.395717,47.5114079 119.727317,47.9775862 C119.048437,48.4059615 118.501763,49.0148132 118.148293,49.7362069 C117.76556,50.4594307 117.470775,51.2259906 117.270244,52.0194828 C117.091332,52.8268249 117.00298,53.6516456 117.006829,54.4786207 C117.00769,55.3053478 117.095987,56.1296585 117.270244,56.9377586 C117.440382,57.7278873 117.705228,58.494535 118.059024,59.2210345 C118.412559,59.9423847 118.959218,60.5512205 119.638049,60.9796552 C120.344476,61.4346464 121.165942,61.6781864 122.005854,61.6816379 C123.601848,61.8010744 125.150711,61.108152 126.126829,59.8380172 L126.126829,55.527931 L122.614634,55.527931 C121.913171,55.527931 121.562439,55.2646264 121.562439,54.7380172 C121.562439,54.211408 121.913171,53.9481034 122.614634,53.9481034 L126.73561,53.9481034 C127.048786,53.9408243 127.356201,54.0331813 127.613659,54.2118966 C127.866908,54.430109 127.99799,54.758285 127.964878,55.0912069 L127.964878,60.5356034 L127.613659,61.0631897 C126.294072,62.7597145 124.23437,63.7093581 122.089268,63.6102586 C120.90921,63.6137683 119.752852,63.2786191 118.757073,62.6444828 C117.828069,62.0254862 117.072452,61.1789884 116.561951,60.1853448 C116.111479,59.3288345 115.786675,58.4117565 115.597561,57.4624138 C115.364856,56.4248319 115.247071,55.364723 115.246341,54.3012931" id="Pfad_24"></path>
        </g>
    </g>
</svg>