<?xml version="1.0" encoding="UTF-8"?>
<svg width="300px" height="79px" viewBox="0 0 300 79" version="1.1" xmlns="http://www.w3.org/2000/svg" xmlns:xlink="http://www.w3.org/1999/xlink">
    <!-- Generator: Sketch 51.3 (57544) - http://www.bohemiancoding.com/sketch -->
    <title>static/images/client-logo/upb</title>
    <desc>Created with Sketch.</desc>
    <defs></defs>
    <g id="static/images/client-logo/upb" stroke="none" stroke-width="1" fill="none" fill-rule="evenodd">
        <g id="Logo_Uni_Paderborn" fill="#FFFFFF">
            <path d="M66.8256781,57.0363767 L66.8256781,46.5342466 L64.3274864,46.5342466 L64.3274864,56.3405274 C64.3274864,58.2808973 63.4367089,59.3138493 61.6117541,59.3138493 C59.7650995,59.3138493 58.9394213,58.5757945 58.9394213,56.3405274 L58.9394213,46.5342466 L56.4195298,46.5342466 L56.4195298,57.0574795 C56.4195298,59.3982603 57.658047,61.3808356 61.6117541,61.3808356 C64.9139241,61.3808356 66.8256781,59.7148014 66.8256781,57.0363767 Z" id="Shape" fill-rule="nonzero"></path>
            <path d="M80.7135624,61.1286849 L80.7135624,46.5347877 L78.3455696,46.5347877 L78.3889693,53.1983836 C78.3889693,54.5273151 78.540868,56.614863 78.6059675,57.3534589 L78.540868,57.416226 C78.3455696,56.7414795 77.6934901,55.0126781 76.9985533,53.6621027 L73.3486438,46.5342466 L70.5244123,46.5342466 L70.5244123,61.1281438 L72.9792043,61.1281438 L72.8924051,54.0630548 C72.8707052,52.7763288 72.8490054,51.236911 72.7405063,50.0140342 L72.8056058,49.950726 C73.0882459,50.8153973 73.9133816,52.6502534 74.7173599,54.2740822 L78.0846293,61.1281438 L80.7135624,61.1281438 L80.7135624,61.1286849 Z" id="Shape" fill-rule="nonzero"></path>
            <polygon id="Shape" fill-rule="nonzero" points="87.7356239 61.1281438 87.7356239 46.5342466 85.1717902 46.5342466 85.1717902 61.1281438"></polygon>
            <path d="M102.067812,46.5342466 L99.4611212,46.5342466 L96.7019892,54.6744932 C95.9631103,56.8469932 95.7895118,57.732226 95.7895118,57.732226 L95.7461121,57.732226 C95.7461121,57.732226 95.5725136,56.6570685 94.9643761,54.8005685 L92.2486438,46.5342466 L89.5117541,46.5342466 L94.5737794,61.190911 L96.8983725,61.190911 L102.067812,46.5342466 Z" id="Shape" fill-rule="nonzero"></path>
            <polygon id="Shape" fill-rule="nonzero" points="112.718083 61.1281438 112.718083 59.0606164 106.700723 59.0606164 106.700723 54.5056712 111.284268 54.5056712 111.284268 52.5019932 106.657324 52.5019932 106.657324 48.5162808 112.175045 48.5162808 112.501085 46.5342466 104.159132 46.5342466 104.159132 61.1281438"></polygon>
            <path d="M125.826401,61.1281438 L123.61085,57.6272534 C122.829114,56.4038356 121.829295,54.9910342 121.286257,54.7166986 C123.54575,54.7166986 125.022966,52.9662534 125.022966,50.7098836 C125.022966,48.432411 123.502351,46.5342466 120.135081,46.5342466 L115.551537,46.5342466 L115.551537,61.1281438 L118.006329,61.1281438 L118.006329,54.8222123 C118.484268,54.8433151 118.701266,54.9910342 118.983906,55.2653699 C119.809584,56.0661918 120.504521,57.0791233 121.54774,58.8712329 L122.851356,61.1281438 L125.826401,61.1281438 Z M122.415732,50.7309863 C122.415732,51.4901438 122.155335,52.1015822 121.742495,52.5019932 C121.286257,52.9446096 120.590778,53.1139726 119.287703,53.1139726 L118.005787,53.1139726 L118.005787,48.4951781 L119.374503,48.4951781 C121.590597,48.4951781 122.415732,49.2543356 122.415732,50.7309863 Z" id="Shape"></path>
            <path d="M138.283183,56.4108699 C138.283183,54.2178082 136.762568,52.867774 134.589873,52.2563356 L132.808318,51.7498699 C131.331103,51.3283562 130.809765,50.8640959 130.809765,49.9577603 C130.809765,48.7554452 131.787342,47.9751849 133.264557,47.9751849 C134.459132,47.9751849 135.415009,48.291726 136.805425,49.0925479 L137.934901,47.3848493 C136.610127,46.4774315 134.893671,45.9931507 133.177215,45.9931507 C130.157685,45.9931507 128.07179,47.7430548 128.07179,50.3159658 C128.07179,51.1600753 128.289331,51.8559247 128.70217,52.4462603 C129.266908,53.2692671 130.244485,53.8168562 131.613201,54.1967055 L133.221157,54.6393219 C134.763472,55.0608356 135.458951,55.7355822 135.458951,56.8118219 C135.458951,58.2662877 134.351175,59.1315 132.504521,59.1315 C130.983906,59.1315 129.789331,58.6888836 128.442315,57.9291849 L127.486438,59.7851438 C128.963653,60.6498151 130.701808,61.0924315 132.417722,61.0924315 C136.262929,61.0929726 138.283183,58.8366027 138.283183,56.4108699 Z" id="Shape" fill-rule="nonzero"></path>
            <polygon id="Shape" fill-rule="nonzero" points="143.612116 61.1281438 143.612116 46.5342466 141.048825 46.5342466 141.048825 61.1281438"></polygon>
            <polygon id="Shape" fill-rule="nonzero" points="156.33689 46.5342466 145.931284 46.5342466 145.931284 48.5584863 149.733092 48.5584863 149.733092 61.1281438 152.231284 61.1281438 152.231284 48.5584863 156.011935 48.5584863"></polygon>
            <path d="M166.666004,44.223226 C166.666004,43.4007603 165.993309,42.7465753 165.209946,42.7465753 C164.38481,42.7465753 163.732731,43.4007603 163.732731,44.223226 C163.732731,45.024589 164.384268,45.6998767 165.188788,45.6998767 C165.993309,45.6998767 166.666004,45.024589 166.666004,44.223226 Z M162.104702,44.223226 C162.104702,43.4007603 161.453165,42.7465753 160.648644,42.7465753 C159.844123,42.7465753 159.192586,43.4007603 159.192586,44.223226 C159.192586,45.024589 159.844123,45.6998767 160.648644,45.6998767 C161.453165,45.6998767 162.104702,45.024589 162.104702,44.223226 Z M169.403978,60.8841096 L164.602893,46.2691096 L161.713562,46.2691096 L156.781193,60.8841096 L159.366727,60.8841096 L160.583002,57.0455753 L165.449729,57.0455753 L166.666004,60.8841096 L169.403978,60.8841096 Z M164.884991,55.0213356 L161.191139,55.0213356 C161.538879,54.0511507 163.081193,48.7998151 163.081193,48.7998151 L163.103436,48.7998151 C163.211935,49.3690479 164.733635,54.7047945 164.884991,55.0213356 Z" id="Shape"></path>
            <polygon id="Shape" fill-rule="nonzero" points="180.207233 46.5342466 169.801085 46.5342466 169.801085 48.5584863 173.602893 48.5584863 173.602893 61.1281438 176.101085 61.1281438 176.101085 48.5584863 179.881736 48.5584863"></polygon>
            <path d="M196.503255,50.8992671 C196.503255,49.2965411 195.764919,47.9887123 194.43906,47.2295548 C193.613924,46.7447329 192.810488,46.5342466 190.616094,46.5342466 L186.618445,46.5342466 L186.618445,61.1281438 L189.094394,61.1281438 L189.094394,55.5602671 L191.636528,55.5602671 C194.35226,55.5602671 196.503255,53.7676164 196.503255,50.8992671 Z M193.744123,51.0469863 C193.744123,52.7763288 192.897288,53.6198973 191.050633,53.6198973 L189.094937,53.6198973 L189.094937,48.4951781 L191.050633,48.4951781 C192.028752,48.4951781 192.680289,48.748411 193.135986,49.2121301 C193.549367,49.6336438 193.744123,50.2456233 193.744123,51.0469863 Z" id="Shape"></path>
            <path d="M208.462568,61.1492466 L203.661483,46.5342466 L200.772152,46.5342466 L195.840868,61.1492466 L198.426401,61.1492466 L199.642676,57.3107123 L204.508318,57.3107123 L205.725678,61.1492466 L208.462568,61.1492466 Z M203.94358,55.2864726 L200.250814,55.2864726 C200.598553,54.3162877 202.139783,49.0649521 202.139783,49.0649521 L202.162025,49.0649521 C202.270524,49.6341849 203.792224,54.9699315 203.94358,55.2864726 Z" id="Shape"></path>
            <path d="M221.155335,53.872589 C221.155335,51.5951164 220.633996,49.8452123 219.525678,48.6006918 C218.11302,47.0396301 216.439964,46.5342466 213.616275,46.5342466 L210.488246,46.5342466 L210.488246,61.1281438 L214.203255,61.1281438 C217.005787,61.1281438 218.308861,60.6433219 219.569078,59.0822603 C220.590597,57.8171781 221.155335,56.0872945 221.155335,53.872589 Z M218.37396,54.1258219 C218.37396,57.4367877 217.309042,59.1450274 214.658951,59.1450274 L213.008137,59.1450274 L213.008137,48.4529726 L214.594394,48.4529726 C215.940868,48.4529726 216.723146,48.7906164 217.418083,49.7185959 C218.199819,50.752089 218.37396,52.2487603 218.37396,54.1258219 Z" id="Shape"></path>
            <polygon id="Shape" fill-rule="nonzero" points="232.609584 61.1281438 232.609584 59.0606164 226.592224 59.0606164 226.592224 54.5056712 231.175769 54.5056712 231.175769 52.5019932 226.548825 52.5019932 226.548825 48.5162808 232.067089 48.5162808 232.392043 46.5342466 224.050633 46.5342466 224.050633 61.1281438"></polygon>
            <path d="M246.26094,61.1281438 L244.044304,57.6272534 C243.262568,56.4038356 242.263291,54.9910342 241.719711,54.7166986 C243.979747,54.7166986 245.456962,52.9662534 245.456962,50.7098836 C245.456962,48.432411 243.936347,46.5342466 240.569078,46.5342466 L235.985533,46.5342466 L235.985533,61.1281438 L238.439241,61.1281438 L238.439241,54.8222123 C238.918264,54.8433151 239.135262,54.9910342 239.41736,55.2653699 C240.242495,56.0661918 240.937975,57.0791233 241.980651,58.8712329 L243.28481,61.1281438 L246.26094,61.1281438 Z M242.850271,50.7309863 C242.850271,51.4901438 242.589873,52.1015822 242.176492,52.5019932 C241.719711,52.9446096 241.024774,53.1139726 239.7217,53.1139726 L238.439783,53.1139726 L238.439783,48.4951781 L239.808499,48.4951781 C242.024593,48.4951781 242.850271,49.2543356 242.850271,50.7309863 Z" id="Shape"></path>
            <path d="M259.237432,56.9941712 C259.237432,55.5391644 258.542495,53.8942329 256.043761,53.3038973 C257.716817,52.8401781 258.629295,51.6800685 258.629295,50.1190068 C258.629295,48.8961301 258.064557,47.9470479 256.935081,47.2511986 C256.000362,46.6814247 255.218626,46.5342466 252.980832,46.5342466 L249.005425,46.5342466 L249.005425,61.1281438 L253.371971,61.1281438 C257.173779,61.1281438 259.237432,59.8836233 259.237432,56.9941712 Z M256.000904,50.4988562 C256.000904,50.8781644 255.870705,51.4901438 255.415009,51.9533219 C254.935986,52.4381438 254.480289,52.5019932 253.568354,52.5019932 L251.438517,52.5019932 L251.438517,48.5162808 L253.371971,48.5162808 C254.08915,48.5162808 254.480289,48.579589 254.784629,48.6851027 C255.501808,48.9377945 256.000904,49.6552877 256.000904,50.4988562 Z M256.478843,56.7620411 C256.478843,58.0693288 255.653707,59.1239247 253.741953,59.1239247 L251.481917,59.1239247 L251.481917,54.5056712 L253.676311,54.5056712 C254.39349,54.5056712 254.69783,54.526774 255.066184,54.6317466 C255.892405,54.8644178 256.478843,55.729089 256.478843,56.7620411 Z" id="Shape"></path>
            <path d="M273.496926,53.5225 C273.496926,49.261911 271.454973,45.9931507 267.219168,45.9931507 C263.459675,45.9931507 260.940325,48.6926781 260.940325,53.5008562 C260.940325,57.8242123 263.04792,61.0302055 267.327125,61.0302055 C271.237975,61.0302055 273.496926,58.0774452 273.496926,53.5225 Z M270.650995,53.6702192 C270.650995,57.5926233 269.499277,59.1953493 267.261483,59.1953493 C264.698192,59.1953493 263.720615,57.1078014 263.720615,53.3536781 C263.720615,49.8527877 264.677577,47.8702123 267.196926,47.8702123 C269.889873,47.8702123 270.650995,50.1060205 270.650995,53.6702192 Z" id="Shape"></path>
            <path d="M286.949186,61.1281438 L284.73255,57.6272534 C283.950814,56.4038356 282.951537,54.9910342 282.407957,54.7166986 C284.667993,54.7166986 286.145208,52.9662534 286.145208,50.7098836 C286.145208,48.432411 284.624593,46.5342466 281.257324,46.5342466 L276.672694,46.5342466 L276.672694,61.1281438 L279.127486,61.1281438 L279.127486,54.8222123 C279.605425,54.8433151 279.822423,54.9910342 280.105606,55.2653699 C280.930741,56.0661918 281.626221,57.0791233 282.668897,58.8712329 L283.971971,61.1281438 L286.949186,61.1281438 Z M283.537432,50.7309863 C283.537432,51.4901438 283.277034,52.1015822 282.864738,52.5019932 C282.407957,52.9446096 281.71302,53.1139726 280.409946,53.1139726 L279.128029,53.1139726 L279.128029,48.4951781 L280.496745,48.4951781 C282.712297,48.4951781 283.537432,49.2543356 283.537432,50.7309863 Z" id="Shape"></path>
            <path d="M299.881736,61.1286849 L299.881736,46.5347877 L297.513743,46.5347877 L297.557143,53.1983836 C297.557143,54.5273151 297.709584,56.614863 297.774141,57.3534589 L297.709584,57.416226 C297.513743,56.7414795 296.862206,55.0126781 296.166727,53.6621027 L292.516275,46.5342466 L289.692586,46.5342466 L289.692586,61.1281438 L292.147378,61.1281438 L292.060579,54.0630548 C292.038336,52.7763288 292.017179,51.236911 291.908137,50.0140342 L291.973779,49.950726 C292.255877,50.8153973 293.081013,52.6502534 293.884991,54.2740822 L297.25226,61.1281438 L299.881736,61.1281438 L299.881736,61.1286849 Z" id="Shape" fill-rule="nonzero"></path>
            <path d="M63.9037975,69.8165205 C63.9037975,68.639637 63.6320072,67.9178151 63.1399638,67.370226 C62.5443038,66.7019726 61.7414105,66.5547945 60.3298373,66.5547945 L58.3361664,66.5547945 L56.4195298,75.7918425 L58.6725136,75.7918425 C60.3688969,75.7918425 61.262387,75.4444589 62.1688969,74.5218904 C63.2305606,73.4391575 63.9037975,71.3667603 63.9037975,69.8165205 Z M62.2985533,69.8565616 C62.2985533,70.5783836 62.0137432,72.3564247 61.1717902,73.5728082 C60.7573237,74.1609795 60.0710669,74.5348767 59.1130199,74.5348767 L58.1940325,74.5348767 L59.579566,67.770637 L60.5121157,67.770637 C61.2629295,67.770637 61.7034358,67.9443288 62.0142857,68.4388904 C62.2334539,68.8003425 62.2985533,69.2678493 62.2985533,69.8565616 Z" id="Shape"></path>
            <path d="M68.0267631,66.9898356 C68.0267631,66.4552329 67.6122966,66.0136986 67.0947559,66.0136986 C66.5636528,66.0136986 66.1367089,66.4546918 66.1367089,67.0028219 C66.1367089,67.5374247 66.5641953,67.9789589 67.081736,67.9789589 C67.6128391,67.9789589 68.0267631,67.5379658 68.0267631,66.9898356 Z M67.4186257,68.8079178 L65.9294756,69.0351781 L64.556962,75.7193356 L66.0070524,75.7193356 L67.4186257,68.8079178 Z" id="Shape"></path>
            <path d="M73.561302,70.524274 C73.561302,69.3208767 72.7584087,68.7191781 71.4895118,68.7191781 C70.6475588,68.7191781 69.9227848,69.0005479 69.2750452,69.6417466 C68.3815552,70.5372603 67.8119349,71.9949726 67.8119349,73.3450068 C67.8119349,74.9493562 68.7439421,75.8178151 70.1424955,75.8178151 C71.2432188,75.8178151 72.0200723,75.5104726 72.8099458,74.8557466 L72.3694394,73.9461644 C71.7607595,74.440726 71.2041591,74.6815137 70.5173599,74.6815137 C69.8056058,74.6815137 69.3260398,74.2805616 69.3260398,73.4380753 C69.3260398,73.2238014 69.3781193,72.8634315 69.4041591,72.7292397 C69.5207957,72.7292397 69.8316456,72.7828082 70.1940325,72.7828082 C71.5405063,72.7828082 72.4339964,72.4754658 72.9775769,71.9273356 C73.3540687,71.5534384 73.561302,71.0724041 73.561302,70.524274 Z M72.1242315,70.6178836 C72.1242315,70.8987123 72.0206148,71.1124452 71.8524412,71.286137 C71.5415913,71.6070068 70.9980108,71.7271301 70.2081374,71.7271301 C69.9878843,71.7271301 69.716094,71.687089 69.6385172,71.687089 C69.9233273,70.4165959 70.5710669,69.8154384 71.3088608,69.8154384 C71.9039783,69.8154384 72.1242315,70.163363 72.1242315,70.6178836 Z" id="Shape"></path>
            <path d="M85.7593128,66.5553356 L84.2701627,66.5553356 L83.0142857,72.6377945 C82.8846293,73.2925205 82.8070524,73.5062534 82.6388788,73.7870822 C82.3410488,74.2821849 81.7708861,74.6430959 80.9815552,74.6430959 C80.2177215,74.6430959 79.7511754,74.3357534 79.6735986,73.8006096 C79.6350814,73.5733493 79.6735986,73.1853836 79.803255,72.5571712 L81.0461121,66.5547945 L79.5439421,66.5547945 L78.2359855,72.8780411 C78.1578662,73.2660068 78.119349,73.6934726 78.119349,73.9743014 C78.119349,75.2572397 79.1549729,75.9660753 80.7607595,75.9660753 C82.1593128,75.9660753 82.8455696,75.5515959 83.3245931,75.1906849 C84.0108499,74.6825959 84.2050633,74.1079521 84.4643761,72.8645137 L85.7593128,66.5553356 Z" id="Shape" fill-rule="nonzero"></path>
            <path d="M91.8,70.1233219 C91.8,69.3073493 91.3079566,68.786274 90.4925859,68.786274 C89.5860759,68.786274 88.7571429,69.2137397 88.1359855,69.9896712 C88.2265823,69.5216233 88.1490054,69.0270616 88.019349,68.7191781 L86.6983725,69.2808356 C86.8405063,69.7753973 86.8280289,70.2299178 86.6723327,71.0188356 L85.7142857,75.6971507 L87.1128391,75.6971507 L88.019349,71.286137 C88.7056058,70.3635685 89.3528029,70.0297123 89.819349,70.0297123 C90.1692586,70.0297123 90.3374322,70.1763493 90.3374322,70.5643151 C90.3374322,70.7109521 90.3113924,70.925226 90.2468354,71.2190411 L89.3273056,75.6971507 L90.7388788,75.6971507 L91.7359855,70.8581301 C91.7869801,70.6308699 91.8,70.3505822 91.8,70.1233219 Z" id="Shape" fill-rule="nonzero"></path>
            <path d="M96.2370705,66.9898356 C96.2370705,66.4552329 95.822604,66.0136986 95.3050633,66.0136986 C94.7739602,66.0136986 94.3464738,66.4546918 94.3464738,67.0028219 C94.3464738,67.5374247 94.7739602,67.9789589 95.2920434,67.9789589 C95.822604,67.9789589 96.2370705,67.5379658 96.2370705,66.9898356 Z M95.6283906,68.8079178 L94.1392405,69.0351781 L92.7667269,75.7193356 L94.2168174,75.7193356 L95.6283906,68.8079178 Z" id="Shape"></path>
            <path d="M102.61085,68.8793425 L101.070163,68.8663562 L99.1925859,72.4218973 C98.8947559,72.9835548 98.6875226,73.4651301 98.5323689,73.8660822 C98.5323689,73.8660822 98.519349,73.8790685 98.519349,73.8925959 C98.519349,73.5051712 98.4933092,72.9034726 98.4417722,72.4619384 L98.0142857,68.7191781 L96.5641953,68.9464384 L97.5482821,75.6571096 L98.7916817,75.6571096 L102.61085,68.8793425 Z" id="Shape" fill-rule="nonzero"></path>
            <path d="M107.738517,70.524274 C107.738517,69.3208767 106.935624,68.7191781 105.666727,68.7191781 C104.824774,68.7191781 104.1,69.0005479 103.45226,69.6417466 C102.55877,70.5372603 101.98915,71.9949726 101.98915,73.3450068 C101.98915,74.9493562 102.9217,75.8178151 104.319711,75.8178151 C105.420434,75.8178151 106.197288,75.5104726 106.987161,74.8557466 L106.546655,73.9461644 C105.937975,74.440726 105.381374,74.6815137 104.695118,74.6815137 C103.982821,74.6815137 103.503797,74.2805616 103.503797,73.4380753 C103.503797,73.2238014 103.555877,72.8634315 103.581917,72.7292397 C103.698553,72.7292397 104.009403,72.7828082 104.37179,72.7828082 C105.718264,72.7828082 106.611754,72.4754658 107.155335,71.9273356 C107.531284,71.5534384 107.738517,71.0724041 107.738517,70.524274 Z M106.300904,70.6178836 C106.300904,70.8987123 106.197288,71.1124452 106.029114,71.286137 C105.718264,71.6070068 105.174141,71.7271301 104.384268,71.7271301 C104.164557,71.7271301 103.892224,71.687089 103.814647,71.687089 C104.099458,70.4165959 104.746655,69.8154384 105.484991,69.8154384 C106.081193,69.8154384 106.300904,70.163363 106.300904,70.6178836 Z" id="Shape"></path>
            <path d="M113.405967,68.8793425 C113.211754,68.7992603 113.095118,68.7722055 112.862387,68.7722055 C112.227667,68.7722055 111.502893,69.2673082 110.907233,70.0426986 C110.99783,69.5746507 110.946293,69.0665616 110.803617,68.7191781 L109.48264,69.2808356 C109.612297,69.7483425 109.625316,70.2569726 109.431103,71.179 L108.499096,75.6976918 L109.910669,75.6976918 L110.803617,71.3532329 C111.373237,70.5248151 111.8783,70.1639041 112.331284,70.1639041 C112.525497,70.1639041 112.655154,70.1904178 112.784268,70.2705 L113.405967,68.8793425 Z" id="Shape" fill-rule="nonzero"></path>
            <path d="M118.807595,69.2938219 C118.289512,68.9594247 117.538698,68.7191781 116.761844,68.7191781 C114.845208,68.7191781 113.900181,69.8419521 113.900181,71.0182945 C113.900181,71.8607808 114.353165,72.3288288 115.130561,72.6361712 L115.881917,72.9299863 C116.477577,73.170774 116.710307,73.3845068 116.710307,73.8125137 C116.710307,74.3736301 116.166727,74.7886507 115.45443,74.7886507 C114.716094,74.7886507 113.95226,74.5072808 113.40868,74.1203973 L112.83906,75.2031301 C113.512297,75.6441233 114.353707,75.9119658 115.260217,75.9119658 C117.189873,75.9119658 118.290054,74.7751233 118.290054,73.3850479 C118.290054,72.5831438 117.758951,72.1021096 116.9566,71.7806986 L116.179747,71.4738973 C115.661664,71.2731507 115.48047,71.0458904 115.48047,70.6849795 C115.48047,70.1233219 115.985533,69.8560205 116.67179,69.8560205 C117.189873,69.8560205 117.694937,70.0031986 118.238517,70.3240685 L118.807595,69.2938219 Z" id="Shape" fill-rule="nonzero"></path>
            <path d="M122.276854,66.9898356 C122.276854,66.4552329 121.862387,66.0136986 121.344846,66.0136986 C120.813743,66.0136986 120.386257,66.4546918 120.386257,67.0028219 C120.386257,67.5374247 120.813743,67.9789589 121.331284,67.9789589 C121.862387,67.9789589 122.276854,67.5379658 122.276854,66.9898356 Z M121.668174,68.8079178 L120.179024,69.0351781 L118.80651,75.7193356 L120.2566,75.7193356 L121.668174,68.8079178 Z" id="Shape"></path>
            <path d="M126.669982,69.1011918 L125.103255,69.1011918 C125.232911,68.4594521 125.453165,67.6705342 125.634358,67.0958904 L124.119711,67.4568014 C123.950995,67.9643493 123.821881,68.4859658 123.692224,69.1011918 L122.953888,69.1011918 L122.746655,70.1438836 L123.484448,70.1438836 L122.694575,73.9943219 C122.629476,74.3281781 122.603978,74.6761027 122.603978,74.9163493 C122.603978,75.5981301 123.096022,76.0526507 123.976492,76.0526507 C124.429476,76.0526507 124.883002,75.9590411 125.335986,75.7718219 L125.335986,74.8627808 C125.129295,74.9563904 124.883002,74.9964315 124.675769,74.9964315 C124.261302,74.9964315 124.067089,74.8627808 124.067089,74.434774 C124.067089,74.2610822 124.093128,74.0338219 124.144665,73.7800479 L124.883002,70.1433425 L126.138879,70.1433425 L126.669982,69.1011918 Z" id="Shape" fill-rule="nonzero"></path>
            <path d="M133.24991,67.4503082 C133.24991,66.9557466 132.861483,66.5547945 132.382459,66.5547945 C131.890416,66.5547945 131.501989,66.9557466 131.501989,67.4503082 C131.501989,67.9578562 131.890416,68.3598904 132.382459,68.3598904 C132.861483,68.3593493 133.24991,67.9578562 133.24991,67.4503082 Z M130.5434,67.4503082 C130.5434,66.9557466 130.154973,66.5547945 129.675949,66.5547945 C129.196926,66.5547945 128.795479,66.9557466 128.795479,67.4503082 C128.795479,67.9578562 129.183906,68.3598904 129.662929,68.3598904 C130.154973,68.3593493 130.5434,67.9578562 130.5434,67.4503082 Z M132.964557,69.4420822 C132.446474,69.0941575 131.68264,68.9339932 130.931826,68.9339932 C129.88264,68.9339932 129.02821,69.2949041 128.329476,70.0302534 C127.487523,70.9257671 126.943942,72.369411 126.943942,73.8671644 C126.943942,75.3108082 127.630199,76.0196438 128.653345,76.0196438 C129.494756,76.0196438 130.155515,75.6316781 130.621519,74.9769521 C130.621519,75.4174041 130.763653,75.7923836 131.113562,76.0861986 L132.278843,75.1906849 C131.954973,74.829774 131.877396,74.4823904 132.046112,73.6669589 L132.577215,70.9934041 C132.667269,70.5118288 132.848463,69.8165205 132.964557,69.4420822 Z M131.372333,70.2304589 L130.673056,73.5462945 C130.375226,74.2280753 129.715009,74.8427603 129.119349,74.8427603 C128.640325,74.8427603 128.407595,74.5613904 128.407595,73.8265822 C128.407595,72.8775 128.679385,71.5669658 129.262025,70.8451438 C129.767089,70.2299178 130.181555,70.0962671 130.764195,70.0962671 C130.983906,70.0968082 131.242676,70.1509178 131.372333,70.2304589 Z" id="Shape"></path>
            <path d="M137.519349,69.1011918 L135.952622,69.1011918 C136.081736,68.4594521 136.301989,67.6705342 136.483725,67.0958904 L134.969078,67.4568014 C134.800362,67.9643493 134.671248,68.4859658 134.541591,69.1011918 L133.803797,69.1011918 L133.596564,70.1438836 L134.334358,70.1438836 L133.544485,73.9943219 C133.479928,74.3281781 133.453888,74.6761027 133.453888,74.9163493 C133.453888,75.5981301 133.945931,76.0526507 134.826401,76.0526507 C135.279928,76.0526507 135.732911,75.9590411 136.185895,75.7718219 L136.185895,74.8627808 C135.978662,74.9563904 135.732911,74.9964315 135.525678,74.9964315 C135.111212,74.9964315 134.916998,74.8627808 134.916998,74.434774 C134.916998,74.2610822 134.943038,74.0338219 134.994575,73.7800479 L135.732369,70.1433425 L136.988246,70.1433425 L137.519349,69.1011918 Z" id="Shape" fill-rule="nonzero"></path>
            <path d="M147.92387,66.2544863 L146.564376,66.0136986 L146.098373,68.2863014 C146.046293,68.5135616 145.930199,69.1287877 145.930199,69.1953425 C145.709946,69.0752192 145.256962,68.9816096 144.674322,68.9816096 C143.923508,68.9816096 143.107595,69.3024795 142.485895,69.9306918 C141.566365,70.8662466 141.048825,72.3098904 141.048825,73.6604658 C141.048825,75.1841918 141.670524,75.986637 142.978481,75.986637 C143.729295,75.986637 144.402532,75.6392534 144.907595,74.9975137 C144.881555,75.4255205 144.985172,75.7593767 145.153888,75.9736507 L146.370705,75.6792945 C146.189512,75.3584247 146.137975,74.9309589 146.435805,73.5008425 L147.92387,66.2544863 Z M145.644846,70.4387808 L144.984629,73.6068973 C144.583183,74.3157329 143.870886,74.8102945 143.327306,74.8102945 C142.796203,74.8102945 142.537432,74.4223288 142.537432,73.6875205 C142.537432,72.7649521 142.899819,71.4549589 143.43038,70.7867055 C143.74123,70.3857534 144.207233,70.1714795 144.6217,70.1714795 C145.101266,70.1714795 145.373056,70.2515616 145.644846,70.4387808 Z" id="Shape"></path>
            <path d="M153.850633,70.524274 C153.850633,69.3208767 153.04774,68.7191781 151.7783,68.7191781 C150.93689,68.7191781 150.212116,69.0005479 149.564376,69.6417466 C148.670886,70.5372603 148.101266,71.9949726 148.101266,73.3450068 C148.101266,74.9493562 149.033816,75.8178151 150.431826,75.8178151 C151.532007,75.8178151 152.308861,75.5104726 153.099277,74.8557466 L152.65877,73.9461644 C152.050633,74.440726 151.494575,74.6815137 150.807233,74.6815137 C150.095479,74.6815137 149.615913,74.2805616 149.615913,73.4380753 C149.615913,73.2238014 149.667993,72.8634315 149.694033,72.7292397 C149.810127,72.7292397 150.121519,72.7828082 150.483906,72.7828082 C151.83038,72.7828082 152.723327,72.4754658 153.267993,71.9273356 C153.642857,71.5534384 153.850633,71.0724041 153.850633,70.524274 Z M152.41302,70.6178836 C152.41302,70.8987123 152.309403,71.1124452 152.141772,71.286137 C151.83038,71.6070068 151.286799,71.7271301 150.496926,71.7271301 C150.276673,71.7271301 150.004882,71.687089 149.927306,71.687089 C150.212116,70.4165959 150.859855,69.8154384 151.597649,69.8154384 C152.192224,69.8154384 152.41302,70.163363 152.41302,70.6178836 Z" id="Shape"></path>
            <path d="M159.519711,68.8793425 C159.32604,68.7992603 159.209403,68.7722055 158.97613,68.7722055 C158.34141,68.7722055 157.616637,69.2673082 157.020976,70.0426986 C157.111031,69.5746507 157.058951,69.0665616 156.91736,68.7191781 L155.595841,69.2808356 C155.724955,69.7483425 155.73906,70.2569726 155.543761,71.179 L154.611212,75.6976918 L156.02387,75.6976918 L156.916817,71.3532329 C157.485895,70.5248151 157.990958,70.1639041 158.444485,70.1639041 C158.638156,70.1639041 158.767812,70.1904178 158.898011,70.2705 L159.519711,68.8793425 Z" id="Shape" fill-rule="nonzero"></path>
            <polygon id="Shape" fill-rule="nonzero" points="165.081917 66.5547945 163.579747 66.5547945 161.663653 75.7923836 163.177758 75.7923836"></polygon>
            <path d="M171.54792,70.1233219 C171.54792,69.3073493 171.055335,68.786274 170.239421,68.786274 C169.333454,68.786274 168.505063,69.2137397 167.882821,69.9896712 C167.97396,69.5216233 167.896383,69.0270616 167.766184,68.7191781 L166.44575,69.2808356 C166.587884,69.7753973 166.574864,70.2299178 166.419168,71.0188356 L165.461121,75.6971507 L166.859675,75.6971507 L167.765642,71.286137 C168.452441,70.3635685 169.099638,70.0297123 169.565642,70.0297123 C169.915552,70.0297123 170.083725,70.1763493 170.083725,70.5643151 C170.083725,70.7109521 170.057143,70.925226 169.992586,71.2190411 L169.074141,75.6971507 L170.485714,75.6971507 L171.482821,70.8581301 C171.534358,70.6308699 171.54792,70.3505822 171.54792,70.1233219 Z" id="Shape" fill-rule="nonzero"></path>
            <path d="M178.16094,66.4011233 C177.824051,66.173863 177.331465,66.0136986 176.774864,66.0136986 C176.269259,66.0136986 175.829837,66.1073082 175.46745,66.3345685 C174.910307,66.6824932 174.495841,67.2436096 174.340145,68.1391233 L174.185533,69.0616918 L173.563834,69.0616918 L173.357143,70.1043836 L174.00434,70.1043836 L172.903617,75.8659726 C172.734901,76.7349726 172.347559,77.4973767 171.971067,77.9648836 L172.929114,78.7267466 C173.525859,78.0985342 174.069439,77.1624384 174.30217,75.9060137 L175.402893,70.1038425 L176.710307,70.1038425 L177.305967,69.0611507 L175.584087,69.0611507 L175.76528,68.0585 C175.868897,67.4568014 176.256781,67.1088767 176.762387,67.1088767 C177.033635,67.1088767 177.305967,67.2024863 177.564738,67.3631918 L178.16094,66.4011233 Z" id="Shape" fill-rule="nonzero"></path>
            <path d="M182.887703,71.0989178 C182.887703,69.6146918 182.07179,68.7191781 180.56962,68.7191781 C178.394213,68.7191781 176.853526,70.7780479 176.853526,73.3850479 C176.853526,74.9352877 177.681917,75.8048288 179.13255,75.8048288 C181.540687,75.8048288 182.887703,73.5722671 182.887703,71.0989178 Z M181.345931,71.0453493 C181.345931,72.6897397 180.660217,74.6950411 179.390778,74.6950411 C178.756058,74.6950411 178.381193,74.3341301 178.381193,73.5186986 C178.381193,71.9809041 179.053888,69.8419521 180.348825,69.8419521 C180.931465,69.8419521 181.345931,70.1363082 181.345931,71.0453493 Z" id="Shape"></path>
            <path d="M188.270344,68.8793425 C188.076673,68.7992603 187.960036,68.7722055 187.726763,68.7722055 C187.092043,68.7722055 186.367269,69.2673082 185.771067,70.0426986 C185.862206,69.5746507 185.810127,69.0665616 185.668535,68.7191781 L184.347016,69.2808356 C184.47613,69.7483425 184.490235,70.2569726 184.294937,71.179 L183.363472,75.6976918 L184.775045,75.6976918 L185.667993,71.3532329 C186.237071,70.5248151 186.742134,70.1639041 187.19566,70.1639041 C187.389331,70.1639041 187.518987,70.1904178 187.648101,70.2705 L188.270344,68.8793425 Z" id="Shape" fill-rule="nonzero"></path>
            <path d="M197.052803,70.1363082 C197.052803,69.2808356 196.53472,68.7722055 195.783363,68.7722055 C195.096564,68.7722055 194.307233,69.1066027 193.516817,69.9756027 C193.478843,69.187226 193.076854,68.786274 192.351537,68.786274 C191.65226,68.786274 190.875407,69.1336575 190.111573,69.9756027 C190.190235,69.548137 190.138156,69.0265205 190.009042,68.7191781 L188.687523,69.2808356 C188.804159,69.7083014 188.816637,70.2699589 188.675045,70.9787945 L187.703436,75.6976918 L189.076492,75.6976918 L189.982459,71.2866781 C190.578119,70.484774 191.238879,70.0302534 191.70434,70.0302534 C192.05425,70.0302534 192.170344,70.1904178 192.170344,70.484774 C192.170344,70.631411 192.119349,70.9122397 192.053707,71.2065959 L191.135262,75.6982329 L192.507233,75.6982329 L193.426763,71.2731507 C193.943761,70.5383425 194.605063,70.0302534 195.084087,70.0302534 C195.446474,70.0302534 195.60217,70.1768904 195.60217,70.5112877 C195.60217,70.6719932 195.575588,70.885726 195.523508,71.1265137 L194.578481,75.6982329 L195.977034,75.6982329 L196.948644,70.9793356 C197.000723,70.6974247 197.052803,70.3770959 197.052803,70.1363082 Z" id="Shape" fill-rule="nonzero"></path>
            <path d="M204.031465,69.2272671 C203.513382,68.8793425 202.749548,68.7191781 201.999277,68.7191781 C200.95009,68.7191781 200.095118,69.080089 199.395841,69.8154384 C198.55443,70.7109521 198.01085,72.1545959 198.01085,73.6523493 C198.01085,75.0959932 198.696564,75.8048288 199.719711,75.8048288 C200.561121,75.8048288 201.221338,75.416863 201.687342,74.762137 C201.687342,75.202589 201.830561,75.5775685 202.179928,75.8713836 L203.345208,74.9758699 C203.020796,74.6149589 202.943761,74.2675753 203.111935,73.4521438 L203.643038,70.778589 C203.733635,70.2970137 203.914828,69.6017055 204.031465,69.2272671 Z M202.439241,70.0156438 L201.739964,73.3314795 C201.442134,74.0132603 200.781917,74.6279452 200.186799,74.6279452 C199.707776,74.6279452 199.475045,74.3465753 199.475045,73.6117671 C199.475045,72.6626849 199.746293,71.3521507 200.328933,70.6303288 C200.834539,70.0151027 201.248463,69.8814521 201.831646,69.8814521 C202.051356,69.8819932 202.309584,69.9361027 202.439241,70.0156438 Z" id="Shape"></path>
            <path d="M209.128752,69.1011918 L207.561483,69.1011918 C207.691682,68.4594521 207.911392,67.6705342 208.092586,67.0958904 L206.578481,67.4568014 C206.409765,67.9643493 206.280651,68.4859658 206.150452,69.1011918 L205.413201,69.1011918 L205.205425,70.1438836 L205.943761,70.1438836 L205.153345,73.9943219 C205.088788,74.3281781 205.063291,74.6761027 205.063291,74.9163493 C205.063291,75.5981301 205.554792,76.0526507 206.435262,76.0526507 C206.888788,76.0526507 207.342315,75.9590411 207.794756,75.7718219 L207.794756,74.8627808 C207.588065,74.9563904 207.342315,74.9964315 207.134539,74.9964315 C206.720072,74.9964315 206.526401,74.8627808 206.526401,74.434774 C206.526401,74.2610822 206.551899,74.0338219 206.603978,73.7800479 L207.342315,70.1433425 L208.597649,70.1433425 L209.128752,69.1011918 Z" id="Shape" fill-rule="nonzero"></path>
            <path d="M212.873056,66.9898356 C212.873056,66.4552329 212.459675,66.0136986 211.941591,66.0136986 C211.410488,66.0136986 210.982459,66.4546918 210.982459,67.0028219 C210.982459,67.5374247 211.410488,67.9789589 211.927486,67.9789589 C212.460217,67.9789589 212.873056,67.5379658 212.873056,66.9898356 Z M212.264919,68.8079178 L210.776311,69.0351781 L209.403255,75.7193356 L210.853888,75.7193356 L212.264919,68.8079178 Z" id="Shape"></path>
            <path d="M218.692405,71.0989178 C218.692405,69.6146918 217.876492,68.7191781 216.374322,68.7191781 C214.198915,68.7191781 212.658228,70.7780479 212.658228,73.3850479 C212.658228,74.9352877 213.486618,75.8048288 214.937251,75.8048288 C217.345389,75.8048288 218.692405,73.5722671 218.692405,71.0989178 Z M217.150633,71.0453493 C217.150633,72.6897397 216.464919,74.6950411 215.195479,74.6950411 C214.560759,74.6950411 214.185895,74.3341301 214.185895,73.5186986 C214.185895,71.9809041 214.85859,69.8419521 216.154611,69.8419521 C216.737251,69.8419521 217.150633,70.1363082 217.150633,71.0453493 Z" id="Shape"></path>
            <path d="M225.796383,70.1233219 C225.796383,69.3073493 225.304882,68.786274 224.488969,68.786274 C223.583002,68.786274 222.754611,69.2137397 222.132369,69.9896712 C222.223508,69.5216233 222.144846,69.0270616 222.015732,68.7191781 L220.694213,69.2808356 C220.837432,69.7753973 220.824412,70.2299178 220.668716,71.0188356 L219.710669,75.6971507 L221.108137,75.6971507 L222.01519,71.286137 C222.701989,70.3635685 223.349186,70.0297123 223.81519,70.0297123 C224.165099,70.0297123 224.332188,70.1763493 224.332188,70.5643151 C224.332188,70.7109521 224.306691,70.925226 224.242134,71.2190411 L223.322604,75.6971507 L224.734177,75.6971507 L225.731284,70.8581301 C225.783906,70.6308699 225.796383,70.3505822 225.796383,70.1233219 Z" id="Shape" fill-rule="nonzero"></path>
            <path d="M232.18915,69.2938219 C231.671067,68.9594247 230.919711,68.7191781 230.1434,68.7191781 C228.226763,68.7191781 227.281736,69.8419521 227.281736,71.0182945 C227.281736,71.8607808 227.735262,72.3288288 228.512116,72.6361712 L229.263472,72.9299863 C229.859132,73.170774 230.091863,73.3845068 230.091863,73.8125137 C230.091863,74.3736301 229.548282,74.7886507 228.836528,74.7886507 C228.098192,74.7886507 227.333816,74.5072808 226.790778,74.1203973 L226.220615,75.2031301 C226.894394,75.6441233 227.735805,75.9119658 228.641772,75.9119658 C230.571429,75.9119658 231.672152,74.7751233 231.672152,73.3850479 C231.672152,72.5831438 231.141049,72.1021096 230.338156,71.7806986 L229.561302,71.4738973 C229.043219,71.2731507 228.862025,71.0458904 228.862025,70.6849795 C228.862025,70.1233219 229.367631,69.8560205 230.052803,69.8560205 C230.570886,69.8560205 231.076492,70.0031986 231.620072,70.3240685 L232.18915,69.2938219 Z" id="Shape" fill-rule="nonzero"></path>
            <path d="M238.792405,69.2407945 C238.080651,68.8663562 237.432911,68.7191781 236.371248,68.7191781 C235.400723,68.7191781 234.58481,69.0930753 233.923508,69.7083014 C233.017541,70.5507877 232.461483,72.1145548 232.461483,73.5051712 C232.461483,75.0288973 233.095118,75.8048288 234.390054,75.8048288 C235.089331,75.8048288 235.684991,75.5640411 236.190054,74.9888562 C236.150995,75.1095205 235.996383,75.8313425 235.956781,75.9785205 C235.711031,76.9276027 235.153888,77.3550685 234.053707,77.3550685 C233.302351,77.3550685 232.693128,77.1949041 232.137071,76.8475205 L231.64557,77.8902123 C232.331284,78.2911644 233.095118,78.491911 233.937613,78.491911 C235.633996,78.491911 236.966908,77.8766849 237.381374,75.9785205 C237.498011,75.4704315 237.58915,74.7080274 237.809403,73.678863 L238.495118,70.3765548 C238.585714,69.9496301 238.753888,69.3609178 238.792405,69.2407945 Z M237.135081,70.1097945 L236.435805,73.4386164 C236.034358,74.1604384 235.400723,74.6420137 234.818083,74.6420137 C234.273418,74.6420137 233.96311,74.2540479 233.96311,73.4651301 C233.96311,72.556089 234.364557,71.1925274 234.908137,70.5507877 C235.245027,70.1498356 235.801085,69.9225753 236.254611,69.9225753 C236.630561,69.9225753 236.928391,69.9761438 237.135081,70.1097945 Z" id="Shape"></path>
            <path d="M245.531826,70.524274 C245.531826,69.3208767 244.728933,68.7191781 243.460579,68.7191781 C242.619168,68.7191781 241.893309,69.0005479 241.246112,69.6417466 C240.353165,70.5372603 239.783002,71.9949726 239.783002,73.3450068 C239.783002,74.9493562 240.715552,75.8178151 242.114105,75.8178151 C243.214828,75.8178151 243.991682,75.5104726 244.781013,74.8557466 L244.341049,73.9461644 C243.732911,74.440726 243.175769,74.6815137 242.488969,74.6815137 C241.777215,74.6815137 241.298192,74.2805616 241.298192,73.4380753 C241.298192,73.2238014 241.350271,72.8634315 241.375769,72.7292397 C241.492405,72.7292397 241.803797,72.7828082 242.166184,72.7828082 C243.512658,72.7828082 244.406148,72.4754658 244.949729,71.9273356 C245.325136,71.5534384 245.531826,71.0724041 245.531826,70.524274 Z M244.094756,70.6178836 C244.094756,70.8987123 243.991139,71.1124452 243.822423,71.286137 C243.512116,71.6070068 242.96745,71.7271301 242.178119,71.7271301 C241.957866,71.7271301 241.686618,71.687089 241.607957,71.687089 C241.892767,70.4165959 242.540506,69.8154384 243.278843,69.8154384 C243.874503,69.8154384 244.094756,70.163363 244.094756,70.6178836 Z" id="Shape"></path>
            <path d="M251.71953,69.2938219 C251.201447,68.9594247 250.45009,68.7191781 249.673779,68.7191781 C247.757143,68.7191781 246.812116,69.8419521 246.812116,71.0182945 C246.812116,71.8607808 247.265642,72.3288288 248.042495,72.6361712 L248.793852,72.9299863 C249.389512,73.170774 249.622242,73.3845068 249.622242,73.8125137 C249.622242,74.3736301 249.077577,74.7886507 248.365823,74.7886507 C247.628571,74.7886507 246.864195,74.5072808 246.320615,74.1203973 L245.750452,75.2031301 C246.423146,75.6441233 247.265642,75.9119658 248.171609,75.9119658 C250.101266,75.9119658 251.201989,74.7751233 251.201989,73.3850479 C251.201989,72.5831438 250.670886,72.1021096 249.867993,71.7806986 L249.091139,71.4738973 C248.573056,71.2731507 248.391863,71.0458904 248.391863,70.6849795 C248.391863,70.1233219 248.896383,69.8560205 249.58264,69.8560205 C250.100723,69.8560205 250.605244,70.0031986 251.14991,70.3240685 L251.71953,69.2938219 Z" id="Shape" fill-rule="nonzero"></path>
            <path d="M258.009222,70.524274 C258.009222,69.3208767 257.206872,68.7191781 255.937975,68.7191781 C255.096564,68.7191781 254.370705,69.0005479 253.723508,69.6417466 C252.830561,70.5372603 252.260398,71.9949726 252.260398,73.3450068 C252.260398,74.9493562 253.192948,75.8178151 254.591501,75.8178151 C255.692224,75.8178151 256.469078,75.5104726 257.258409,74.8557466 L256.818445,73.9461644 C256.209222,74.440726 255.653165,74.6815137 254.966365,74.6815137 C254.254611,74.6815137 253.775588,74.2805616 253.775588,73.4380753 C253.775588,73.2238014 253.827667,72.8634315 253.853165,72.7292397 C253.969801,72.7292397 254.281193,72.7828082 254.64358,72.7828082 C255.990054,72.7828082 256.883544,72.4754658 257.427125,71.9273356 C257.802532,71.5534384 258.009222,71.0724041 258.009222,70.524274 Z M256.572152,70.6178836 C256.572152,70.8987123 256.468535,71.1124452 256.299819,71.286137 C255.989512,71.6070068 255.445931,71.7271301 254.655515,71.7271301 C254.435262,71.7271301 254.164014,71.687089 254.085353,71.687089 C254.370163,70.4165959 255.017902,69.8154384 255.756239,69.8154384 C256.351899,69.8154384 256.572152,70.163363 256.572152,70.6178836 Z" id="Shape"></path>
            <path d="M262.2,65.4726027 L260.698373,65.9806918 C260.827486,66.4216849 260.775949,67.076411 260.594756,67.9724658 L259.443038,73.5473767 C259.364376,73.9218151 259.312839,74.2962534 259.312839,74.4964589 C259.312839,75.1246712 259.701808,75.5396918 260.453165,75.5396918 C260.788969,75.5396918 261.113382,75.4855822 261.411212,75.366 L261.333635,74.4704863 C261.269078,74.497 261.190416,74.497 261.113382,74.497 C260.906691,74.497 260.803074,74.3768767 260.803074,74.136089 C260.803074,73.9759247 260.841049,73.7216096 260.957685,73.1870068 L262.084991,67.7327603 C262.265642,66.8897329 262.303617,65.8870822 262.2,65.4726027 Z" id="Shape" fill-rule="nonzero"></path>
            <path d="M265.454973,65.4726027 L263.95226,65.9806918 C264.082459,66.4216849 264.030922,67.076411 263.849729,67.9724658 L262.696926,73.5473767 C262.619349,73.9218151 262.567812,74.2962534 262.567812,74.4964589 C262.567812,75.1246712 262.955696,75.5396918 263.707052,75.5396918 C264.043942,75.5396918 264.367269,75.4855822 264.665099,75.366 L264.587523,74.4704863 C264.522966,74.497 264.445389,74.497 264.367269,74.497 C264.160579,74.497 264.056962,74.3768767 264.056962,74.136089 C264.056962,73.9759247 264.096022,73.7216096 264.212658,73.1870068 L265.338879,67.7327603 C265.51953,66.8897329 265.55859,65.8870822 265.454973,65.4726027 Z" id="Shape" fill-rule="nonzero"></path>
            <path d="M271.790235,69.2938219 C271.273237,68.9594247 270.521881,68.7191781 269.744485,68.7191781 C267.828933,68.7191781 266.883906,69.8419521 266.883906,71.0182945 C266.883906,71.8607808 267.337432,72.3288288 268.114286,72.6361712 L268.864557,72.9299863 C269.461302,73.170774 269.694033,73.3845068 269.694033,73.8125137 C269.694033,74.3736301 269.149367,74.7886507 268.437613,74.7886507 C267.700362,74.7886507 266.935986,74.5072808 266.391863,74.1203973 L265.822785,75.2031301 C266.495479,75.6441233 267.337975,75.9119658 268.243942,75.9119658 C270.173599,75.9119658 271.274322,74.7751233 271.274322,73.3850479 C271.274322,72.5831438 270.743219,72.1021096 269.940325,71.7806986 L269.163472,71.4738973 C268.645389,71.2731507 268.464195,71.0458904 268.464195,70.6849795 C268.464195,70.1233219 268.968716,69.8560205 269.654973,69.8560205 C270.173056,69.8560205 270.677577,70.0031986 271.222242,70.3240685 L271.790235,69.2938219 Z" id="Shape" fill-rule="nonzero"></path>
            <path d="M277.744665,69.4280137 C277.291139,68.9464384 276.695479,68.7191781 276.073779,68.7191781 C275.245389,68.7191781 274.597649,68.9864795 274.002532,69.5075548 C273.109584,70.2834863 272.332731,71.9008219 272.332731,73.5181575 C272.332731,74.9888562 273.069982,75.8308014 274.533635,75.8308014 C275.426582,75.8308014 276.126401,75.5364452 276.851718,74.9352877 L276.333635,74.0127192 C275.854611,74.4537123 275.336528,74.7215548 274.843942,74.7215548 C274.222785,74.7215548 273.873418,74.3206027 273.873418,73.5181575 C273.873418,72.4754658 274.313382,71.0583356 274.779385,70.4701644 C275.064195,70.1222397 275.453165,69.9220342 275.842134,69.9220342 C276.230018,69.9220342 276.631465,70.0686712 276.968354,70.4165959 L277.744665,69.4280137 Z" id="Shape" fill-rule="nonzero"></path>
            <path d="M284.075588,69.7770205 C284.075588,68.9881027 283.571067,68.4535 282.613562,68.4535 C281.823146,68.4535 280.917179,68.8679795 280.295479,69.6298425 C280.373056,69.3895959 280.503255,68.8544521 280.55425,68.6142055 L280.749005,67.6786507 C280.930199,66.8231781 280.982278,65.8870822 280.852622,65.4726027 L279.401989,65.9806918 C279.505606,66.4081575 279.492043,66.9833425 279.285353,67.9589384 L277.757685,75.3914315 L279.169259,75.3914315 L280.075226,70.9804178 C280.632369,70.2450685 281.461302,69.6969384 281.991863,69.6969384 C282.379747,69.6969384 282.587523,69.8841575 282.6,70.2715822 C282.6,70.4052329 282.562025,70.6195068 282.522423,70.8326986 L281.589873,75.3914315 L282.988427,75.3914315 L283.972514,70.6054384 C284.05009,70.2445274 284.075588,69.9902123 284.075588,69.7770205 Z" id="Shape" fill-rule="nonzero"></path>
            <path d="M290.830741,69.2272671 C290.313743,68.8793425 289.548825,68.7191781 288.798553,68.7191781 C287.749367,68.7191781 286.894394,69.080089 286.195118,69.8154384 C285.353707,70.7109521 284.810127,72.1545959 284.810127,73.6523493 C284.810127,75.0959932 285.495841,75.8048288 286.518987,75.8048288 C287.360398,75.8048288 288.020615,75.416863 288.486618,74.762137 C288.486618,75.202589 288.629837,75.5775685 288.979204,75.8713836 L290.144485,74.9758699 C289.820072,74.6149589 289.743038,74.2675753 289.911212,73.4521438 L290.442315,70.778589 C290.533454,70.2970137 290.714105,69.6017055 290.830741,69.2272671 Z M289.238517,70.0156438 L288.539241,73.3314795 C288.24141,74.0132603 287.581193,74.6279452 286.986076,74.6279452 C286.507052,74.6279452 286.274322,74.3465753 286.274322,73.6117671 C286.274322,72.6626849 286.54557,71.3521507 287.12821,70.6303288 C287.633816,70.0151027 288.04774,69.8814521 288.630922,69.8814521 C288.849548,69.8819932 289.109403,69.9361027 289.238517,70.0156438 Z" id="Shape"></path>
            <path d="M296.966908,66.4011233 C296.630018,66.173863 296.138517,66.0136986 295.580832,66.0136986 C295.076311,66.0136986 294.635805,66.1073082 294.273418,66.3345685 C293.71736,66.6824932 293.302893,67.2436096 293.147197,68.1391233 L292.991501,69.0616918 L292.370344,69.0616918 L292.162568,70.1043836 L292.809765,70.1043836 L291.710127,75.8659726 C291.54141,76.7349726 291.152984,77.4973767 290.777577,77.9648836 L291.735624,78.7267466 C292.331284,78.0985342 292.874864,77.1624384 293.107595,75.9060137 L294.208318,70.1038425 L295.515732,70.1038425 L296.111392,69.0611507 L294.389512,69.0611507 L294.570705,68.0585 C294.674322,67.4568014 295.063291,67.1088767 295.567812,67.1088767 C295.840145,67.1088767 296.111392,67.2024863 296.370705,67.3631918 L296.966908,66.4011233 Z" id="Shape" fill-rule="nonzero"></path>
            <path d="M299.725497,69.1011918 L298.159313,69.1011918 C298.288427,68.4594521 298.509222,67.6705342 298.690416,67.0958904 L297.175226,67.4568014 C297.00651,67.9643493 296.877396,68.4859658 296.748282,69.1011918 L296.009946,69.1011918 L295.803255,70.1438836 L296.540506,70.1438836 L295.751175,73.9943219 C295.685533,74.3281781 295.660036,74.6761027 295.660036,74.9163493 C295.660036,75.5981301 296.152622,76.0526507 297.032007,76.0526507 C297.485533,76.0526507 297.93906,75.9590411 298.392586,75.7718219 L298.392586,74.8627808 C298.18481,74.9563904 297.93906,74.9964315 297.731284,74.9964315 C297.316817,74.9964315 297.123146,74.8627808 297.123146,74.434774 C297.123146,74.2610822 297.149729,74.0338219 297.200723,73.7800479 L297.93906,70.1433425 L299.194394,70.1433425 L299.725497,69.1011918 Z" id="Shape" fill-rule="nonzero"></path>
            <polygon id="Shape" fill-rule="nonzero" points="34.680651 0 25.4972875 7.17871918 25.4972875 40.4934521 45.5273056 59.0324795 34.680651 34.0479178"></polygon>
            <polygon id="Shape" fill-rule="nonzero" points="46.4593128 25.1966712 37.9746835 18.3972603 37.9746835 31.6427466 46.4593128 58.7554384"></polygon>
            <polygon id="Shape" fill-rule="nonzero" points="21.8793852 17.8561644 13.0198915 25.008911 13.0198915 50.4377123 44.6462929 59.7835205 21.8793852 43.2844247"></polygon>
            <polygon id="Shape" fill-rule="nonzero" points="44.1227848 60.7867123 0 60.7867123 0 42.8910479 9.20886076 35.7123288 9.20886076 53.6334247"></polygon>
        </g>
    </g>
</svg>